<?xml version="1.0" encoding="utf-8"?>
<!-- Generator: Adobe Illustrator 16.0.0, SVG Export Plug-In . SVG Version: 6.00 Build 0)  -->
<!DOCTYPE svg PUBLIC "-//W3C//DTD SVG 1.1//EN" "http://www.w3.org/Graphics/SVG/1.1/DTD/svg11.dtd">
<svg version="1.1" id="Layer_1" xmlns="http://www.w3.org/2000/svg" xmlns:xlink="http://www.w3.org/1999/xlink" x="0px" y="0px"
	 width="576.921px" height="411.033px" viewBox="223.118 175.872 576.921 411.033"
	 enable-background="new 223.118 175.872 576.921 411.033" xml:space="preserve">
<g id="bg_light" display="none">
	<rect x="128.5" display="inline" fill="#EDEDED" stroke="#FFFFFF" stroke-miterlimit="10" width="768" height="768"/>
</g>
<g id="bg_dark" display="none">
	<rect x="128.5" display="inline" fill="#333333" stroke="#FFFFFF" stroke-miterlimit="10" width="768" height="768"/>
</g>
<g id="folder">
	<g>
		<path fill="#CCC8B8" d="M779.994,586.905H244.622c-8.448,0-15.36-6.912-15.36-15.359v-368.64c0-8.448,6.912-15.36,15.36-15.36
			H784.68c8.447,0,15.359,6.912,15.359,15.36v364.032C799.963,577.92,791.054,586.905,779.994,586.905z"/>
		<path fill="#D79E29" d="M778.458,579.226h-539.98c-8.448,0-15.36-6.912-15.36-15.36v-368.64c0-8.448,6.912-15.36,15.36-15.36
			h540.058c8.448,0,15.36,6.912,15.36,15.36v368.64C793.818,572.313,786.983,579.226,778.458,579.226z"/>
		<path fill="#CCC8B8" d="M430.247,342.835h328.474c6.374,0,11.521-5.146,11.521-11.52V230.784c0-6.375-5.146-11.52-11.521-11.52
			H430.247c-6.374,0-11.52,5.146-11.52,11.52v100.531C418.727,337.689,423.873,342.835,430.247,342.835z"/>
		<g>
			<path fill="#FEF9E4" d="M522.715,261.504h237.85V222.72c0-6.375-5.146-11.52-11.521-11.52H496.68l11.212,39.168
				C509.812,256.973,515.803,261.504,522.715,261.504z"/>
			<path fill="#FEF9E4" d="M408.974,222.72v100.531c0,6.375,5.146,11.521,11.52,11.521h328.473c6.375,0,11.521-5.146,11.521-11.521
				v-61.747H522.715c-6.836,0-12.902-4.531-14.746-11.136L496.68,211.2h-76.186C414.119,211.2,408.974,216.346,408.974,222.72z"/>
			<path fill="#CCC8B8" d="M408.974,222.72v100.531c0,6.375,5.146,11.521,11.52,11.521h328.473c6.375,0,11.521-5.146,11.521-11.521
				v-61.747H520.334c-5.453,0-10.292-3.609-11.827-8.909l-11.904-41.472h-76.186C414.119,211.2,408.974,216.346,408.974,222.72z"/>
		</g>
		<path fill="#FFCD05" d="M500.212,259.277l-13.286-46.387c-1.92-6.605-7.91-11.136-14.746-11.136H238.478
			c-8.448,0-15.36,6.912-15.36,15.36v53.299v65.28v228.634c0,8.448,6.912,15.36,15.36,15.36h540.058
			c8.448,0,15.36-6.912,15.36-15.36V285.773c0-8.448-6.912-15.36-15.36-15.36H515.034
			C508.122,270.413,502.132,265.805,500.212,259.277z"/>
		<path fill="#CCC8B8" d="M770.778,563.865H246.158c-4.224,0-7.68-3.456-7.68-7.68v-3.072c0-4.224,3.456-7.68,7.68-7.68h524.698
			c4.224,0,7.68,3.456,7.68,7.68v3.072C778.458,560.409,775.079,563.865,770.778,563.865z"/>
	</g>
</g>
<g id="folder_ribbon">
	<path fill="#CCC8B8" d="M418.574,482.842l-56.294-47.386c-1.459-1.229-3.533-1.229-4.915,0l-56.294,47.386
		c-1.997,1.689-5.069,0.23-5.069-2.381V179.789h127.642v300.672C423.643,483.072,420.57,484.531,418.574,482.842z"/>
	<path fill="#CB2027" d="M413.658,478.925l-56.294-47.462c-1.459-1.229-3.533-1.229-4.916,0l-56.294,47.385
		c-1.997,1.69-5.069,0.23-5.069-2.381V179.712c0-2.15,1.69-3.84,3.84-3.84h119.961c2.15,0,3.84,1.689,3.84,3.84v296.832
		C418.727,479.155,415.655,480.614,413.658,478.925z"/>
</g>
<g id="folder_lock" display="none">
	<rect x="205.069" y="291.994" display="inline" fill="#0099CC" width="606.644" height="214.963"/>
	<circle display="inline" fill="#FEF9E4" cx="512.884" cy="400.051" r="83.712"/>
	<polygon display="inline" fill="#016699" points="222.964,520.243 205.069,507.033 222.964,507.033 	"/>
	<polygon display="inline" fill="#016699" points="811.713,507.033 793.818,520.243 793.818,507.033 	"/>
	<path display="inline" fill="#016699" d="M550.746,386.073h-3.148v-18.893c0-11.98-9.754-21.657-21.657-21.657h-21.658
		c-11.98,0-21.657,9.753-21.657,21.657v18.893h-3.149c-2.688,0-4.838,2.15-4.838,4.839v54.374c0,2.688,2.15,4.839,4.838,4.839
		h71.348c2.688,0,4.838-2.15,4.838-4.839v-54.374C555.585,388.224,553.435,386.073,550.746,386.073z M497.063,367.181
		c0-3.993,3.226-7.219,7.219-7.219h21.658c3.993,0,7.219,3.226,7.219,7.219v18.893h-36.096V367.181z"/>
	<path display="inline" fill="#33C6F4" d="M546.445,386.073h-3.226v-18.893c0-11.98-9.753-21.657-21.657-21.657h-21.658
		c-11.98,0-21.657,9.753-21.657,21.657v18.893h-3.148c-2.688,0-4.839,2.15-4.839,4.839v54.374c0,2.688,2.15,4.839,4.839,4.839
		h71.347c2.688,0,4.839-2.15,4.839-4.839v-54.374C551.207,388.224,549.057,386.073,546.445,386.073z M492.686,367.181
		c0-3.993,3.226-7.219,7.219-7.219h21.658c3.993,0,7.219,3.226,7.219,7.219v18.893h-36.096V367.181z"/>
</g>
</svg>
