<?xml version="1.0" encoding="utf-8"?>
<!-- Generator: Adobe Illustrator 19.1.0, SVG Export Plug-In . SVG Version: 6.00 Build 0)  -->
<svg version="1.1" id="folder" xmlns="http://www.w3.org/2000/svg" xmlns:xlink="http://www.w3.org/1999/xlink" x="0px" y="0px"
	 viewBox="0 0 283.5 283.5" style="enable-background:new 0 0 283.5 283.5;" xml:space="preserve">
<style type="text/css">
	.st0{fill:#3F3D35;}
	.st1{fill:#35332D;}
</style>
<path d="M235.3,84.6h-90.7c-1.6,0-2.8-1.3-2.8-2.8V74c0-3.1-2.5-5.7-5.7-5.7H48.2c-3.1,0-5.7,2.5-5.7,5.7v16.2c0,0,0,0,0,0v135.4
	c0,3.1,2.5,5.7,5.7,5.7h187.1c3.1,0,5.7-2.5,5.7-5.7V90.3C240.9,87.1,238.4,84.6,235.3,84.6z"/>
<path class="st0" d="M245.3,99.2H38.2c-3.1,0-5.7,2.5-5.7,5.7l10,130.4c0,3.1,2.5,5.7,5.7,5.7h187.1c3.1,0,5.7-2.5,5.7-5.7l10-130.4
	C250.9,101.8,248.4,99.2,245.3,99.2z"/>
<path class="st1" d="M245.3,99.2h-60.7l-22.3,141.7h73c3.1,0,5.7-2.5,5.7-5.7l10-130.4C250.9,101.8,248.4,99.2,245.3,99.2z"/>
</svg>
