<?xml version="1.0" encoding="utf-8"?>
<!-- Generator: Adobe Illustrator 19.1.0, SVG Export Plug-In . SVG Version: 6.00 Build 0)  -->
<svg version="1.1" id="Layer_1" xmlns="http://www.w3.org/2000/svg" xmlns:xlink="http://www.w3.org/1999/xlink" x="0px" y="0px"
	 viewBox="0 0 842.6 421.3" style="enable-background:new 0 0 842.6 421.3;" xml:space="preserve">
<g>
	<path d="M8.8,299.6h0.3c1.6,0,8.3-0.4,9.2,0c0.4-0.1,0.8,0,1.2,0.1c0.3,0,1.1,0,1.3,0.1c0.5-0.3,1.1-0.4,1.6-0.1
		c0.5-0.1,0.9-0.1,1.4-0.1l0.3,0.3l0.3-0.3c0.8,0.1,1.7,0,2.5,0c7.8,0.1,15.5-0.1,23.3,0.3l0.1,0.1c1.5-0.3,2.9,0,4.3,0
		c6.1-0.3,12.1-0.1,18.2-0.3l3,0.1c0.4,0,1.1-0.1,1.4,0l0.1-0.4l0.1,0.4c3.2,0.7,1.5-2.1,2-5.4c-0.3-0.4-0.3-0.8-0.1-1.3
		c2-0.1,2.6-0.9,4.9,0c0.1-0.1,0.5-0.3,0.7-0.1v-0.1c1.1-0.1,2,0.5,3,0.1c0,0,0.1,0.1,0.1,0.3V293c0.4,0,0.8,0.1,1.2,0.1l0.1-0.1
		c0.7,0.4,1.1-0.1,1.6,0c0-6.5,0.7-19.1,0.7-19.1l-0.1-12c0,0-0.9-4-0.7-4.2c0-0.7,0-5.3-0.3-5.8h-0.8l-0.1,0.4l-0.1-0.4
		c-0.3,0-0.8,0.1-1.1-0.1c-0.5,0.4-1.7,0.4-2.4,0.3l-0.1-0.3l-0.1,0.4c-0.5,0.1-0.5-0.1-0.9-0.4c-0.3,0.1-0.7,0.4-0.9,0.3l-0.3-0.4
		l-0.3,0.4l-1.2-0.3l-0.1,0.3c-0.4-0.1-0.5-0.1-0.9-0.1l-0.3,0.1h-0.3l-0.1-0.4l-0.1,0.3c-0.8,0-0.8-0.5-0.8-1.2l0.4-0.1l-0.4-0.1
		c-0.1-0.5-0.4-1.3-0.1-1.7c-0.1-0.4,0-0.8,0-1.2l-0.4-0.1c0-0.7-0.3-1.7-0.4-2.2l-0.9,0.4c0-2.1,1.6-4.5,2.6-5.9
		c0.1-0.7,0.3-0.7,0.1-1.1c-0.7,0.8-3,4.9-3.2,5.9c-0.1-1.1,0.1-1.8-0.4-2.9l0.3-0.3l-0.1-1.4l-0.1-0.3l-0.3,0.1
		c-0.1-0.3-0.4-0.5-0.7-0.5c-0.3,0-0.4-0.3-0.7-0.4l-0.1-0.4c-0.9-0.1-10-0.1-10.3-0.4l-0.4,0.3c-2.5,0-10.3,0-12.1-0.4l-1.1-0.3
		c-0.4,0.3-16.6-0.1-17.8-0.1l-0.1-4.7c0-0.1,0-0.3,0.1-0.5l-0.1-0.4c0.4-0.1,5.3,0,5.4,0.1c0.8-0.3,21.2,0,21.5,0.1
		c1.8-0.4,12.5,0.1,14.5,0.1c2.1,1.8,11.5,0,12.8,0.7c0.5-0.1,0.7,0.4,1.3,0c-0.1-0.1,0.1-0.4,0.1-0.4c0.3-1.6-0.7-6.9,0.4-8.7
		l0.4-0.1c0-0.5,0.3-1.4,0-1.8l-0.3-0.1c-0.5-1.6,0.4-9.5,0.8-11.3c0.4-1.8-0.8-3.7-0.3-5.4c0.1-0.4,0.1-0.7,0.1-1.1
		c0-0.4,1.3-1.8,1.3-1.8h-0.1l-1.4,1.2c-0.5-0.7,0.3-1.6,0-2.5c-0.3,0-0.7,0-0.9,0.1l-0.1-0.3c-0.5,0-6.1-0.1-7.4-0.1l-0.3,1.1
		c-0.4-0.1-0.9-0.5-1.1-1.1c-1.1-0.1-6.7-1.2-7.2-0.4c-9-0.3-17.9-0.4-26.9-0.3c-3,0-9.4-0.4-11.5-0.1c-4,0.5-14.8-0.1-19-0.4
		c-0.4,0-0.7,0.1-1.1,0.3v0.3c-0.4,0-0.7-0.3-1.1-0.3c0,0.1,0,0.4-0.1,0.5l0.1,0.3l0.3,0.1c0.3,0.5,0.3,1.4,0.4,1.6
		c0,0.3-0.1,0.5-0.5,0.5l0.5,0.4c-0.5,0.5,0.3,1.1,0,1.3l-0.1,0.4l0.9,0.1l-0.1,0.3c0,0.1,0.1,0.1,0.3,0.1l-0.1,0.3
		c0.1,0,0.5-0.3,0.7-0.3c0,1.7,0,4,0.3,5.7l-0.9-0.4L15,211c-0.3,0-0.9,0-1.1-0.4l-0.1,0.5c-0.3,0-0.5,0-0.8-0.1
		c-0.8,0.3-2,0.3-2.9,0.4c0-0.1-0.3-0.7-0.3-0.5l-0.3,0.5c-0.5,0.1-1.3,0.1-1.8-0.1l-0.1,0.4L7,211.9v0.4c-0.3,0-0.4,0.1-0.7,0.1
		v0.8l-0.3,0.1l-0.3-1.1l-0.3,0.8H4.7l-0.1-0.1c-0.1,0.1-0.5,0.4-0.8,0.1v0.7l-0.4-0.7l-1.2,0.3v-0.3l-0.5,0.4l0.1-0.7L1.7,212
		l-0.3-0.4l-0.1,2.5l-0.3,2.6c0,6.9,0.4,9.1,0.4,15.9l-0.4,0.8c-0.1,0.1,0.1,0.5,0.1,0.7l0.3,0.3c-0.1,0.4,0,8.6,0.1,9.4
		c0,0.5-0.3,1.8,0,2.2l0.1,1.1l-0.3-0.1l-0.5-1.1v0.7c0,0,0.8,1.3,0.4,1.6c0,0.1-0.1,0.4,0,0.4c0,0.4,0,0.9,0.1,1.2
		c-1.1,1.6-0.4,1.1-0.7,2c-0.3,0.7-0.8,1.2-0.8,1.2v0.8l1.1-1.4c0,0,0.1-1.1,0.1-1.6c0.1-0.1,0.4-0.3,0.5-0.5c0,1.1-0.4,2.4,0.5,3
		l0.4-0.3c1.1,0.1,1.7,0.1,2.8,0.1c0,0,0.1-0.3,0.3-0.3c0.3,0,0.7,0,0.8-0.3l0.1,0.1l-0.8,0.8c0.4,0.1,1.6-0.8,2-0.9l0.3,0.1
		l0.3-0.4c0.1,0.1,0.5,0.3,0.7,0.1c0.4,0.1,0.8,0.4,1.2,0.1c0,0.1,0.1-0.7,0.1-0.8h0.3l-0.1,0.7h0.3c-0.1-0.3,0.5-0.1,0.4,0.1
		l0.4-0.1l0.1-0.5l0.4,0.3l0.1,0.4l0.1-0.3c0.5,0,1.1,0,1.6-0.1l0.1,0.4c0-0.3,0.3-0.4,0.5-0.3l0.3-0.1c0.3-0.1,0.5-0.1,0.8,0
		c0.5-0.1,1.1,0,1.6,0c0,0.3-0.1,2.6-0.3,2.6l0.1,0.4c0,0.3-0.1,0.4-0.3,0.5l0.4,0.9c0.1,1.7,0.1,2.5,0.4,4.2c0.5,0,1.1,0,1.6-0.1
		l0.7-0.7l0.4,0.3l0.4-0.5l1.2,0.7l0.4-0.3l0.1-0.9l0.5,0.1v1.1c0.4,0,0.4-0.5,0.8-0.5c-0.1,0.4,0.1,0.9,0.1,0.9s0.4-0.8,0.8-0.9
		l1.3-0.1l0.4,0.3h2l-0.3-0.4c0.5,0,0.9,0.3,1.4,0.3l0.3,0.3c0.4-0.3,2.9-0.4,3.3-0.1l1.6,0.8c0,0.1,0.1,0.1,0.1,0.3
		c0.5-1.1,0.7-0.1,1.2-0.5l0.1,0.3l0.7-0.1l0.1,0.1l0.1-0.5l0.4,0.5l0.7-0.1l0.3,0.4c0.3-0.8,1.3-0.4,2.1-0.4l0.3,0.4l0.3-0.3
		c0.4-0.1,1.2-0.1,1.6-0.1c0.1,0.3,0,0.4,0.3,0.5v-0.5h2.6l0.5,1.2v-0.9c0-0.3,1.1,0.1,1.3-0.3l0.1-0.5h1.2c0,0.3,0.4,1.1,0.5,1.3
		l0.1-0.9l0.3,0.5c0-0.1,0.1-0.4,0.3-0.4c0.3,0,0.5,0.1,0.5,0.5l0.3-0.4l0.3,0.7l0.3-0.5c0.5,0,2.4-0.1,2.6,0.4l0.1-0.3
		c0.3-0.1,0.5-0.1,0.8,0l0.1,0.9c0-0.3,0.3-0.8,0.3-0.9c0.4,0,1.2-0.1,1.4,0c0.3,0,0.4-0.4,0.5-0.7l1.6,0.1c0,0.7,0.1,5.5,0,5.7
		l0.3,0.4l-0.3,1.1c-0.7-0.5-2.2,0-2.5,0c-2.1,0.1-22.8-0.3-23.1-0.5l-0.3,0.3c-0.3,0-0.7-0.4-1.1-0.3c0.1,0.1-0.3,0.1-0.3,0.1
		l-1.2,0.1c-0.9,0.1-2,0-2.9-0.1c-0.9-0.1-4.7-0.3-5.7-0.1c-4.3,0.7-15.9-0.7-19.2,0.3c0,0.3,0,3.2-0.1,3.6c0.4,1.1,0.1,4.1,0.7,4.5
		c0.4,0,1.2,0.1,1.5-0.1c0.3,0.1,0,0.4,0,0.7c0,0.4,0.3,0.9,0.3,1.3c-0.1,1.2,0.5,7.1,0.3,8.2c-0.1,0.5-0.1,0.9,0,1.4
		c0.1,0.3,0.4,2.9,0.4,3c-0.1,0.7-0.4,1.2-0.3,2c0.5,0,1.1,0.1,1.5,0.3l0.3-0.1l0.1,0.1l0.8,0.3c0,0.5,0.3,3.3,0,3.4
		c0-0.1-0.1,0.3-0.1,0.3h0.3v3.4L8.8,299.6z"/>
	<path d="M101.5,233.4c-0.1,0.1,0,20.7,0.1,23.1c-0.4,1.8,0.3,14.9-0.1,15.2c0.5,0.7-0.3,15.8,0.3,16.5c0.4,0,1.6-0.3,1.8-0.1
		c0.3,0,0.7-0.3,0.7,0.1c0.3,0,0.7-0.1,0.9-0.3l0.4,0.1c0,0.4-0.3,1.2,0,1.4h0.5c0.3-0.1,0.5-0.1,0.7,0.1l0.4-0.4
		c0.4-0.1,0.5,0,0.9,0.3l0.3-0.4h0.9l0.9,0.5l0.5-0.1c0.4,0,1.8-0.3,2.1,0c0.4-0.3,1.1-0.3,1.4-0.1c0.1,2.1,0.1,5.5-0.1,7.8
		c0,0.7,0.4,1.8,0.1,2.4l0.1,0.1c5.1,0.1,13.3-0.9,18.2-0.4c1.7,0.3,12.6-0.3,13.3,0c2.1-0.4,4.2,0.3,6.2,0
		c3.2-0.4,7.4-0.5,10.5-0.1c2,0.3,12.4-0.3,14.1-0.1c0.9-0.3,10.7,1.7,10.7,1.7l0.4-0.1V300c-0.8-0.7-3.4-1.3-4.2-1.1
		c-0.4-0.3-0.4-0.3-0.9-0.3l-0.5-0.3c-0.4,0.3-0.8,0-1.3,0c-0.1-0.1-0.4-0.3-0.5-0.3c0-0.8-0.1-3.7,0.4-4.2l0.8-0.3
		c0.3-0.1,0.5-0.3,0.7-0.5c-0.7-0.9-0.1-1.6-0.1-2.6c0.4,0.1,1.6,4.6,1.6,4.6l0.4,0.3l-0.4-3.2c0,0,0.5-1.1-0.5-1.8h-0.4
		c0.1-0.8-1.5-2.5-0.4-3.2c-0.7-1.2,0.4-2.2,0-3.4c-0.4-0.9-0.8-6.2-0.8-7.5c0.3-0.3,1.4,0.4,1.8,0.8c0.3,0.3,4.1,1.2,4.1,1.2v-0.5
		c0,0-4.9-1.6-5.8-2.2l-0.5-1.2l-0.9-0.3c-0.7-0.7-0.3-4.3-0.5-5.3l0.8-0.1c-0.1-0.3-0.1-0.4,0-0.7l-0.1-0.5l-0.9-1.1
		c-2.5-0.1-3.8,0-6.3-0.1c-0.5,0-1.3-1.1-1.3-1.1s-0.7-1.1-0.8-1.4h-0.4l-0.1,0.3l0.5,0.9l0.7,1.4c-0.3-0.1-37,0.5-37.7,0.1
		c-0.1-2.9-0.4-35.6-0.3-36c0.7-0.4,41.8,0.3,46.5,0.1v0.4c0.7-0.9-0.1-3.2,0.1-4.5c0.3-1.6,0.3-3.7,0.1-5.3c0-0.4,0.8-1.6,0.8-2.4
		c0-2.6,0.4-9.9,0.1-11.9c0.3-0.3,0.3-1.2,0.3-1.4c0.4-0.7,0-1.3,0.4-1.8c0.3-0.3,0.7-1.1,0.7-1.1s0.1-1.3-0.1-1.4
		c-0.1,0.3-0.1,1.1-0.3,1.3H182v-0.4h-0.3c0,0.1-0.5,0.1-0.7,0.3c0.3-1.6,0.5-1.2,0.5-3.6l-0.3-1.2h-0.1l-0.3,0.7
		c-8.2-0.3-16.1-0.4-24.2-0.1c-4.7,0.1-9.6,0.3-14.4,0.1c-6.2-0.3-12.5-0.4-18.7-0.3l-0.5,0.5c-0.7-0.3-6.9-0.8-7.8-0.7l-0.9,0.1
		c-0.3,0.8,0.1,1.7,0.3,2.5c0,0.1-0.5,0.7-0.7,0.8c0,0.8,0.5,6.2,0.7,6.7c-0.4,0-3.3,0.1-3.6,0.3c-0.3,0-2.1,0.1-2.4,0
		c-0.3,0.1-0.7,0-1.1,0c-2.2-0.4-4.5,0.3-6.7,0.5c0,1.8,0.4,18.3,0.4,18.4C101.2,227.7,101.5,233.4,101.5,233.4z"/>
	<path d="M193.2,202l-0.1,0.9h0.1l0.7-0.4v1.4c0.1,5,0.8,10.4,0.5,15.4c-0.1,2.2,0.7,4.5,0.3,6.7c-0.3,1.7,0.4,3.4,0.3,5.3
		c0.2,0.1,0.5,0.1,0.9,0.2c-0.1,2.6-0.1,5.7,0.1,8.3c0.4,4.5-0.4,9.2,0.1,13.7c-0.4,5.5-0.1,13.7-0.1,13.7l-0.3,3.2l0.3,0.4v5.7
		l-0.3,0.1c0,0.1,0,4,0.3,3.7c0.3,1.8,0.4,4.2,0.1,6.2c-0.5,0.4-0.4,0.9-0.3,1.4c-0.4,0.7-0.8,1.3-0.5,2.1v0.1l0.3,0.3v-0.3
		c-0.1-0.7,0-0.7,0.1-1.3l0.3-0.5c0.4-0.5-0.1-1.2,0-1.4l0.1-0.1l0.3,1.4l-0.3,0.8c0,0.7,0.1,0.5,0,1.2l-0.1,0.1l0.1,0.5
		c-0.4,0.4-0.4,1.2-0.9,1.6c0,0.3,0.1,0.4,0.3,0.5c0.7,1.1,0.4,1.6,0.7,2.6l-0.3,0.1c0,0.1,0.3,0.1,0.3,0.1v1.6
		c0,1.2,0.1,2.5-0.1,2.8c0,0.4-0.3,1.1-0.3,1.3l0.1,0.1l0.4-1.6h0.5c0.4,0,0.8,0.1,1.2,0.1l0.1,0.3l0.1-0.3c0.4,0,0.8,0,1.2,0.1
		c0.5-0.4,0.8,0,1.2-0.3c0.1,0.4-0.1,0.9,0.1,1.3c0.1-0.7,0.1-1.1,0.1-1.3c0.9,0.1,0.7-0.1,1.1,0.5V300l1.1,0.1l-0.8,1.8l0.8-0.8
		c-0.1,0.9,0.3,0.3,0.7-1.2c0.7,0,1.2,0.1,1.8,0.3v0.4c0.1,0,0.3-0.4,0.3-0.5h0.5l0.1-0.1l1.6,0.3c0.3,0,0.8-0.3,1.1,0l0.3-0.1
		c0.4,0.1,0.9,0.1,1.3,0.4c0.3-0.3,0.5-0.1,0.8-0.3l0.5,0.1v-0.3l1.7-0.1c0.1-0.1,2.9-0.3,3.2-0.3v0.4l0.3-0.4
		c0.3,0,0.8-0.1,1.1,0.1l0.4-0.4h0.4c0.3,0,0.5,0,0.7,0.3v-0.3l0.7,0.1h0.7l0.1-0.1l0.5,0.1l0.4-0.3c0.8,0.4,0.9-1.1,0.9-1.6h0.3
		v0.7c0.3-0.1,0-0.5,0.1-0.7l0.4-0.1c0,0.1,0.1,0.5,0.1,0.7c0.1-0.3,0.1-0.4,0.1-0.7l0.4,0.1l0.1-0.1l0.4-0.1c0,0,0.3,0.9,0.4,0.5
		v-0.5h0.9l0.1,0.3l0.1-0.3h0.4l0.1,0.7v-0.7l0.5-0.1l0.1,0.3l0.3,0.1l0.3,0.4l0.3-0.1v-0.7c0-2.4-0.4-6.5-0.1-7.2
		c-0.3-0.5,0-7.6,0-11.5c0-2.6,0.4-8.2-0.1-11.3c-0.1-0.1,0.3,0,0.3,0l0.3,0.9l0.1-0.9c0.4-0.3,0.9,0,1.3-0.3l0.1-0.5l0.1,0.1
		l0.1-0.1c1.2,0.1,3.4-0.4,4.3,0.3c0,0.4-0.1,0.7-0.1,1.1l0.3-0.1v-1.2c0.7-0.1,5.4-0.3,5.8-0.1c0.4,0.5,0.3,1.3,0.9,1.8
		c0-0.4-0.4-0.8-0.4-1.2h1.2c0,0.1,0.1,0.7,0.3,0.5l0.1-0.5c0.3,0,0.7-0.1,0.9-0.1c0.3,0,0.9,1.1,0.9,0.8c0-0.3-0.1-0.4-0.4-0.7
		l1.4-0.1l0.3,0.5v-0.4c0.4-0.1,0.8,0,1.3,0l0.1,0.7c-0.1,0.4-0.3,0.7-0.1,1.1c-0.8,1.3-0.9,0.7-1.7,1.4c0.4,0,0.9-0.3,1.3-0.5v0.9
		l-0.1,0.7h-0.3l0.1,0.4c-0.3,0.5,0.1,1.2-0.4,1.6h0.4l-0.3,0.7c0.1,0-0.1,0.8-0.1,0.9l0.1,0.1c-0.1,0.9-0.1,0.9-1.1,1.2l0.1,0.1
		c0.3-0.1,0.8-0.1,1.1-0.1c0,1.3,0.7,2.5,0.4,3.7c-0.7,2.9-0.7,7-0.7,10.3v3.2c0,0.5-0.1,2.6-0.3,4.1c0,0.7-0.1,1.2-0.1,1.3l0.1,0.5
		h0.3v0.3c0.3-0.3,0.5,0,0.8-0.1l0.5,0.1l0.1-0.1h1.7l0.3-0.1l0.4-0.1c0.3,0.1,0.5,0.3,0.8,0.3v-0.1c0.3-0.1,0.9,0,1.2,0.1h0.5
		l0.4,0.3c0.7-0.1,1.4,0,2-0.3l0.3,0.3c0.4-0.3,2.2-0.3,2.6,0c0.4,0,0.7,0.1,0.9,0.3l0.4-0.3c0.4,0,1.7-0.1,1.7,0.4
		c0.1,0,0.1-0.3,0.1-0.4h0.9v0.3c0.1,0,0.3-0.1,0.3-0.3c0.3,0,0.9,0.1,1.1-0.1l0.1,0.3c0.3,0,0.4-0.1,0.7-0.1l0.1,0.1V299l0.1,0.3
		c0.1-0.4,0-0.8,0-1.2h0.3c-0.1,0.1-0.1,0.5,0,0.7l0.3-0.1v-0.4l0.3-0.1l0.1,0.7l0.1-0.1l0.1-0.5c0.3,0,0.7,0.1,0.9,0
		c0,0,0.1,0.4,0.1,0.3l0.1-0.3h0.4c0,0.1,0.1,1.1,0.3,0.9c-0.1-0.3,0-0.9,0.4-0.9c0,0.3,0.1,0.4,0.3,0.7v-0.5c0.8,0.4,0,0.8,0.4,1.2
		l-0.4-0.1l0.3,0.4h0.5l0.3,0.1l0.4-0.3l0.1,0.4c0.4-0.3,0.9,0,1.2-0.3l0.3,0.1l0.5-0.1c0.1-0.1,0.3-0.5,0.3-0.7h-0.3v-1.1h1.2
		l0.1,0.7l0.3-0.7c0-0.1,0.3,0,0.3,0v0.5l0.1-0.5l0.3,0.1c0-0.1,0.1-0.3,0.3-0.3l0.3,0.7l0.1-0.7c0.1-0.1,2.1,0.3,2.2,0
		c0.3,0,0.7,0.1,0.9,0.3l0.3-0.3v0.5l0.4,0.1l-0.1-0.3c0.1-0.1,0.1-0.4,0.3-0.8c0.3-1.7,0.3-5.1,0.3-7.2c0-0.9,0-1.7,0.1-1.8
		c-0.5-1.1-0.7-25.3-0.7-29.8c-0.4,0-0.8,0.1-1.2,0.1l-0.5-0.3l-0.1-0.8c-0.3-0.1-0.8-0.3-1.1-0.3v-0.3h-0.7l-1.1,0.3l-0.3,0.3
		l-0.1-0.4h-0.3c0,0.3,0.1,0.5,0.1,0.5l-0.1,0.4l-0.3,0.1c0,0,0.1-0.5,0-0.8v-0.3l-0.3,0.1c-0.4-0.3-0.8-0.1-1.2-0.1v-0.8l-0.1-0.1
		l-0.1,1.4c0,0-0.5-0.3-0.9-0.3c0,0.4,0,1.1-0.1,1.3c-0.7,0-1.4,0.1-2.1,0.1l-0.1-0.5c-0.3,0-0.4,0.1-0.4,0.4l-0.1-0.1
		c0,0,0,0.1-0.1,0.1c-0.1-1.1-1.1-4.6-1.1-4.6s0-1.7,0.4-2c0.1,0,0.5,0.1,0.7,0l0.1,0.3l0.3-0.3h0.1v-0.4h3.3
		c0.1-0.4-0.1-0.9,0.1-1.2h0.3v-0.4c0.8,0,1.2-0.3,2,0v-0.1c0.1,0.1,0.8,0,1.1,0v0.3l0.4-0.4l0.7,0.4v-0.3c0.9-0.1,2,0,2.9,0
		c0-0.4,0.1-0.8-0.1-1.1l0.1-0.3c0.3,0,0.5-0.1,0.7-0.4c0.3-0.5-0.3-0.8-0.3-1.1v-4.9c0-5.7,0.3-11.2,0.1-16.9l0.5-0.7l-0.3-17.4
		c0,0-4.5,0-4.6,0.7c-0.1-0.4-0.5-0.9-0.5-1.4l-0.7-0.5l-0.3,0.3l-0.3-0.7l-0.3-0.1l-0.1,0.5v0.9h0.3v0.5l0.4,0.1l-1.7,0.3l-0.4-0.1
		l-0.1-0.4l-0.4,0.3l0.5,0.4l-0.1,0.3c-0.4,0.3-3.3-0.4-4.1-0.5c-0.3-0.4-0.3-2.9-0.1-3.6c-0.1,0-0.1-0.3-0.1-0.3
		c0-0.5,0.4-1.7,0.1-2.2c0-0.1,0.1-0.1,0.3-0.1v-0.3h1.1v-0.4l0.1-0.3l-0.1-0.9H262c-2.4,0.1-5.3-0.1-7.6-0.1
		c-4.6,0-9.4-0.3-14.1-0.3c-4.9,0-10,0.4-14.9-0.1l-0.1-0.5c-0.7-0.1-1.5,0.3-2.2,0.1c-3.6-0.4-8.7,0.5-12-0.1
		c-6.9,1-10.6-0.3-17.9,0.5c0.4,0.7,0,1.2,0.3,1.7l-0.1,0.4V202z M228.1,231.5c5.8-0.4,12.4,0.1,18.1,0.1c0,1.3-0.1,11.9-0.4,12.3
		c0,0.3-0.1,0.7-0.1,0.9c-2.2,0-16.5,0.3-17.5,0C228.1,243.9,228,231.9,228.1,231.5z M195.8,231.4
		C195.8,231.4,195.8,231.4,195.8,231.4C195.5,231.4,195.4,231.4,195.8,231.4z"/>
	<path d="M291.1,290l1.2,0.1l0.3-0.1c-0.1-0.1,0-0.4,0-0.4h0.3l0.1,0.4c0.5,0.1,1.3-0.3,1.7,0.1l0.3-0.3l0.3,0.1
		c0.1,0.5,0.1,1.2,0.4,1.6h0.1c0-0.8-0.4-0.9-0.1-1.8c0.3,0.4,0.8,2.8,0.8,3.3c-0.3-0.4-0.1-0.8-0.5-1.2c0.1,0.8,0.5,1.3,0.4,2.1
		c-0.1,0.8-0.4,2.8-0.4,3.6h0.3c0-1.6,0.3-1.2,0.4-2.8c0.1,0.1,0,1.4,0,1.7l-0.1,0.1c0,0.4,0,2.4,0.3,2.6c0.4,0,3.2-0.5,3.3-0.7
		c5.3,0.3,7.8,0.5,13,0.5h1.6l0.8-0.3l0.4,0.1l0.7,0.3c0.9-0.1,2.9-0.1,4,0l1.3,0.1l0.3-0.3c1.1,0.1,1.6,0,2.6,0l0.3-0.1
		c1.6,0.5,4,0.1,5.7,0.1h22.4c0.5,0,1.2-0.1,1.3,0.5h0.1l0.1-0.5c4.3-0.1,8.3,0.1,12.6,0.1v-1.8c0,0-0.4-0.8-0.1-1.2l-0.3-0.1
		c0.1-0.4,0.3-3.7,0.3-3.8h-0.3c-0.7-1.4,0.4-15.3-0.7-18.4h-0.5c-0.3-0.1-0.5,0-0.9,0c0-0.7,0-1.3-0.1-2c0-0.4,0.3-0.5,0.4-0.9
		c0,0,0-0.4,0.1-0.4v-0.4l0.1,0.1c0-0.3,0.1-0.7,0.3-0.8c0.3,0,0.5,0,0.8-0.1v-0.8c0-0.1-0.5-0.5-0.4-0.5h0.4v0.4l0.1-0.4
		c-0.1-0.1,0-0.4,0-0.7h-0.5c-0.3-0.3-1.1-0.5-1.4-0.5c-3.7,0.3-7.6,0-11.3,0h-31.9c-0.1-0.4-0.3-1.7,0-2.1l-0.1-0.9
		c0.1-0.5,0.3-1.2,0-1.7c0.1-0.4,0.4-0.9,0.1-1.3l0.1-0.9c0.4,0,1.6,0,1.8,0.3l0.1-0.3c0.4,0,0.9-0.1,1.3-0.1l0.1,0.9v-0.9
		c0.5,0.1,1.8-0.3,2.1,0.3c0.7-0.4,1.3-0.4,2-0.3v0.3l0.3-0.1c0.5,0,1.1-0.3,1.6-0.1l0.3-0.5l0.1,0.3l-0.1,0.1c0.4,0.3,1.1,0,1.4,0
		c0-0.1,0.1-0.4,0.1-0.5l0.3,0.5l0.9,0.1c0,0.1,0.1,0.3,0.1,0.3s1.2-0.5,1.8-0.5l0.3-0.1l0.3,0.3c0.4-0.1,1.2-0.4,1.3-0.8
		c1.2-0.3,4.6,0.9,6.5,0.9c0-0.1,1.1-0.5,1.1-0.7h8.7c0.7,0,1.3,0.4,1.3,0.4s0.4-0.1,0.3-0.4c0.4-0.1,5.9,0,6.6,0v0.4
		c0.7-0.1,1.3,0.4,2,0.3c-0.1-4.5,0.3-8.8,0-13.3c-0.1-2.1-1.3-2.8-1.4-3.6l-0.7-0.1c0.7-1.2,1.2-2.5,0.1-3.7c0-0.4-0.1-0.9-0.3-1.3
		c-2.4-0.4-5.9,0.5-8.2-0.1c-0.7,0.3-27.8,0.1-31.9,0.1c0-1.7,0.3-3.8-0.1-5.4c0.3-0.1,0.1-1.6,0.1-2v-0.3l0.4,0.1
		c0.1,0,0.4-0.1,0.5-0.3c1.4,0,3.4-0.1,4.9,0.1l0.3-0.1h0.8c0.7,0.1,1.2,0.1,1.8-0.1c0.7-0.3,1.3,0.3,1.8,0.3v-0.3
		c0.4,0,0.7,0,1.1,0.1c0.4-0.1,0.9-0.3,1.3-0.1l0.1,0.1c0.1-0.3,3,0,3.2,0.1c0.4-0.4,2.6-0.3,3.2,0l-0.3,0.1c0.9-0.1,2-0.1,2.9-0.1
		v-0.3c0.4,0,2.5,0.3,2.6,0c0.9,0,2,0,2.9,0.3v-0.3h0.4c0.1,0.1,5,0,5.8,0.1c1.5,0.3,4.9,0,6.5,0c0.1,0,0.1-0.1,0.3-0.1l0.3,0.3
		c0.1-0.1,6.5-0.4,6.9-0.1l0.3-0.1c0,0-0.1-1.2-0.4-1.4c0.3-1.2,0.3-1.3,0-2.4c-0.3-1.1,0.4-2.6,0.3-3.6c-0.1-1.1-0.7-4.2,0-5.1
		c-0.1-0.5-0.5-12.1-0.5-12.6v-0.8l-0.1-0.1l-0.3-0.4c-0.3-0.1-0.9-0.3-1.2,0c0-0.5,0-0.9,0.1-1.4c0.3-1.3-0.4-2.9-0.4-4.3
		c-4.7,0-9.9-0.4-14.6,0.1c-2,0.3-4.2-0.4-6.2-0.1c-5.3,0.7-10.8-0.3-16.1,0.3c-5.5,0.7-5.4-0.5-10.9,0.3l-6.1-0.3
		c-2.5,0.9-16.5-0.8-17.9,0.4l0.5,2.2c-0.5,0.4-0.7,0.3-1.3,0.7c-0.3,0.7,0.5,1.1,0.8,1.4l-0.1,0.4l-1.6-0.1l-0.1,0.8
		c0.1,0.7,0.4,1.4,1.1,1.7c0.4-0.1,0.8-0.1,1.2-0.1c0.4,0,0.1,0.9,0.4,1.3l-0.3,0.9c-0.3-0.1-0.8,0-0.9,0.3c-0.7-0.1-3.4,0-4,0.1
		l-1.1,0.4l-0.1,8.6l-0.1,9.4c0,0-0.1,8-0.1,12c0,13.6-0.5,40.5-0.5,40.5l-0.3,11.2C288.5,289.8,290.7,289.5,291.1,290z
		 M343.5,268.9c0.1,0,0.3-0.3,0.1-0.3c0-0.4,0.1-0.7,0.3-0.9l0.3,0.3l0.1,0.7l-0.1,0.5c-0.3,0.1-0.3,0.5-0.4,0.8h-2.6
		C341.3,269.5,343.3,269.5,343.5,268.9z M361.7,239.4c0.3,0.7,0.4,1.7-0.1,2.6C361.3,241.3,361.5,240.2,361.7,239.4z"/>
	<path d="M379.4,256.3c0,4,0.1,12,0.1,12l0.1,9.4l0.1,8.6l1.1,0.4c0.5,0.1,3.3,0.3,4,0.1c0.1,0.3,0.7,0.4,0.9,0.3l0.3,0.9
		c-0.3,0.4,0,1.3-0.4,1.3c-0.4,0-0.8,0-1.2-0.1c-0.7,0.3-0.9,1.1-1.1,1.7l0.1,0.8l1.6-0.1l0.1,0.4c-0.3,0.4-1.1,0.8-0.8,1.4
		c0.7,0.4,0.8,0.3,1.3,0.7l-0.5,2.2c1.4,1.2,15.4-0.5,17.9,0.4l6.1-0.3c5.5,0.8,5.4-0.4,10.9,0.3c5.3,0.5,10.8-0.4,16.1,0.3
		c2,0.3,4.2-0.4,6.2-0.1c4.7,0.5,9.9,0.1,14.6,0.1c0-1.4,0.7-3,0.4-4.3c-0.1-0.5-0.1-0.9-0.1-1.4c0.3,0.3,0.9,0.1,1.2,0l0.3-0.4
		l0.1-0.1v-0.8c0-0.5,0.4-12.1,0.5-12.6c-0.7-0.9-0.1-4.1,0-5.1c0.1-0.9-0.5-2.5-0.3-3.6c0.3-1.1,0.3-1.2,0-2.4
		c0.3-0.3,0.4-1.4,0.4-1.4l-0.3-0.1c-0.4,0.3-6.7,0-6.9-0.1l-0.3,0.3c-0.1,0-0.1-0.1-0.3-0.1c-1.6,0-5-0.3-6.5,0
		c-0.8,0.1-5.7,0-5.8,0.1h-0.4v-0.3c-0.9,0.3-2,0.3-2.9,0.3c-0.1-0.3-2.2,0-2.6,0v-0.3c-0.9,0-2,0-2.9-0.1l0.3,0.1
		c-0.5,0.3-2.8,0.4-3.2,0c-0.1,0.1-3,0.4-3.2,0.1l-0.1,0.1c-0.4,0.1-0.9,0-1.3-0.1c-0.4,0.1-0.7,0.1-1.1,0.1v-0.3
		c-0.5,0-1.2,0.5-1.8,0.3c-0.7-0.3-1.2-0.3-1.8-0.1h-0.8l-0.3-0.1c-1.4,0.3-3.4,0.1-4.9,0.1c-0.1-0.1-0.4-0.3-0.5-0.3l-0.4,0.1v-0.3
		c0-0.4,0.1-1.8-0.1-2c0.4-1.6,0.1-3.7,0.1-5.4c4.1,0,31.2-0.1,31.9,0.1c2.2-0.7,5.8,0.3,8.2-0.1c0.1-0.4,0.3-0.9,0.3-1.3
		c1.1-1.2,0.5-2.5-0.1-3.7l0.7-0.1c0.1-0.8,1.3-1.4,1.4-3.6c0.3-4.5-0.1-8.8,0-13.3c-0.7-0.1-1.3,0.4-2,0.3v0.4
		c-0.7,0-6.2,0.1-6.6,0c0.1-0.3-0.3-0.4-0.3-0.4s-0.7,0.4-1.3,0.4h-8.7c0-0.1-1.1-0.5-1.1-0.7c-1.8,0-5.3,1.2-6.5,0.9
		c-0.1-0.4-0.9-0.7-1.3-0.8l-0.3,0.3l-0.3-0.1c-0.7,0-1.8-0.5-1.8-0.5s-0.1,0.1-0.1,0.3l-0.9,0.1l-0.3,0.5c0-0.1-0.1-0.4-0.1-0.5
		c-0.4,0-1.1-0.3-1.4,0l0.1,0.1l-0.1,0.3l-0.3-0.5c-0.5,0.1-1.1-0.1-1.6-0.1l-0.3-0.1v0.3c-0.7,0.1-1.3,0.1-2-0.3
		c-0.3,0.5-1.6,0.1-2.1,0.3v-0.9l-0.1,0.9c-0.4,0-0.9-0.1-1.3-0.1l-0.1-0.3c-0.3,0.3-1.4,0.3-1.8,0.3l-0.1-0.9
		c0.3-0.4,0-0.9-0.1-1.3c0.3-0.5,0.1-1.2,0-1.7l0.1-0.9c-0.3-0.4-0.1-1.7,0-2.1h31.9c3.7,0,7.6-0.3,11.3,0c0.4,0,1.2-0.3,1.5-0.5
		h0.5c0-0.3-0.1-0.5,0-0.7l-0.1-0.4v0.4h-0.4c-0.1,0,0.4-0.4,0.4-0.5v-0.8c-0.3-0.1-0.5-0.1-0.8-0.1c-0.1-0.1-0.3-0.5-0.3-0.8
		l-0.1,0.1v-0.4c-0.1,0-0.1-0.4-0.1-0.4c-0.1-0.4-0.4-0.5-0.4-0.9c0.1-0.7,0.1-1.3,0.1-2c0.4,0,0.7,0.1,0.9,0h0.5
		c1.1-3.2,0-17,0.7-18.4h0.3c0-0.1-0.1-3.4-0.3-3.8l0.3-0.1c-0.3-0.4,0.1-1.2,0.1-1.2v-1.8c-4.3,0-8.3,0.3-12.6,0.1l-0.1-0.5h-0.1
		c-0.1,0.7-0.8,0.5-1.3,0.5h-22.4c-1.7,0-4.1-0.4-5.7,0.1l-0.3-0.1c-1.1,0-1.6-0.1-2.6,0l-0.3-0.3l-1.3,0.1c-1.1,0.1-3,0.1-4,0
		l-0.7,0.3l-0.4,0.1l-0.8-0.3h-1.6c-5.3,0-7.8,0.3-13,0.5c-0.1-0.1-2.9-0.7-3.3-0.7c-0.3,0.3-0.3,2.2-0.3,2.6l0.1,0.1
		c0,0.3,0.1,1.6,0,1.7c-0.1-1.6-0.4-1.2-0.4-2.8H386c0,0.8,0.3,2.8,0.4,3.6c0.1,0.8-0.3,1.3-0.4,2.1c0.4-0.4,0.3-0.8,0.5-1.2
		c0,0.5-0.5,2.9-0.8,3.3c-0.3-0.9,0.1-1.1,0.1-1.8h-0.1c-0.3,0.4-0.3,1.1-0.4,1.6l-0.3,0.1l-0.3-0.3c-0.4,0.4-1.2,0-1.7,0.1
		l-0.1,0.4h-0.3c0,0-0.1-0.3,0-0.4l-0.3-0.1l-1.2,0.1c-0.4,0.5-2.6,0.3-2.6,0.3l0.3,11.2C378.9,215.8,379.4,242.7,379.4,256.3z
		 M451.7,252.3c0.5,0.9,0.4,2,0.1,2.6C451.6,254.2,451.5,253.1,451.7,252.3z"/>
	<path d="M477.3,206.7c0.1-0.4,0.3-0.8,0.5-1.1C478.1,205.2,477.3,205.9,477.3,206.7z"/>
	<path d="M484.3,299.6c-0.1,0.3-0.1,0.9-0.1,1.2c0.8,0,1.8-0.1,2.6,0.1c0.5-0.3,2-0.1,2.5,0.1c0.4-0.3,0.1-0.4,0.7-0.7l0.1,0.3
		l0.1-0.3h1.1l0.3-0.3c0.8,0,2.6,0.3,3.3-0.1l0.1,0.1l0.5-0.1v0.5l0.3-0.5h0.4v0.4l0.1,0.1c0-0.1,0.1-0.3,0.1-0.4l0.4-0.1
		c0,0.3-0.1,0.5-0.1,0.8h0.1c0-0.3,0.1-0.4,0.1-0.7h0.4l0.5,0.8l0.3-0.3h0.4c0,0.1-0.1,0.3-0.1,0.4c0.3-0.1,0.5-0.1,0.8,0v0.3
		c0.4,0.1,1.1,0.4,1.8,0.4c0.7-3.2,0.7-6.6,0.8-9.9l0.3-0.7c0,0,0.1,1.2,0.1,1.4c0.4-0.5,0.1-27.9-0.1-29.3c-0.1-0.5,0.3-1.3,0-1.7
		l0.1-2.6h0.3c0.4,0.5,3.6,5,4.1,5.4c0.1,0.4,2.2,3.4,2.5,3.6c0,0.3,9.4,13.6,9.8,13.8v0.1c1.3,2.1,3.4,5.5,5.3,7.2h0.1
		c0,0.7,7.4,10.1,8.3,11.9c0.1,0,0.4-0.1,0.5-0.3h0.4l0.1-0.3l0.4-0.1v-0.3c0.4-0.1,0.7-0.7,0.9-0.9c0.3-0.4,0.9-0.4,1.2-0.8
		l0.3,0.1c0.3-0.4,0.7-0.9,1.2-0.9l-0.4,0.9l0.3,0.3l0.3-0.1l0.4,0.1c0.1-0.1,0.5,0,0.7,0.1c0.1-0.1,0.3-0.3,0.4-0.3l0.1,0.1
		c0.1-0.1,0.4-0.1,0.5,0c0.3-0.1,0.4-0.3,0.7-0.1l0.7-0.3l0.1,0.4c0-0.1,0-0.4,0.1-0.4l0.3,0.4c0-0.5,0.3-0.7,0.5-0.9
		c0,0.3-0.1,0.9,0,1.2c0.7,0,1.6,0,2.2,0.1c0,0.1,0.1,0.1,0.3,0.1l0.1-0.3c0.3,0,0.7,0,0.9,0.3l0.3-0.1c0.4,0,0.8,0.3,1.1,0.4
		c0.4-0.3,1.1-0.1,1.5,0l0.5-0.3c0.3,0,0.8,0.3,0.9,0c0.9,0.3,2.2,0.3,3.2,0.3c0-0.3,0-0.8,0.1-1.1l0.3,0.1v-0.7c0.4,0,2,0,2.2,0.1
		l0.1-0.3c0.3,0,0.8,0.1,1.1,0.3l0.4-0.1l0.1,0.1l0.1-0.1c0.3,0.1,0.7,0.3,0.9,0c0.1,0.3,0.4,0.3,0.3,0h0.3l0.3,0.7l0.1-0.4h0.7
		v-0.1l0.3-0.1c0.3-1.2,0.3-2.4,0.3-3.6c0-0.7,0.4-2.2,0.4-2.2l-0.8-9l0.1-2.9c0.8-18.2-0.7-36.2-0.9-54.3l-0.3-16.5v-6.9
		c0-0.3,0.1-1.6-0.3-1.6c-0.7,0-1.8,0-2.5,0.3l-0.1-0.3c-0.1-0.1-0.1,0.1-0.1,0.3l-0.5-0.1c-0.3,0.1-0.5,0.1-0.8,0
		c-0.7,0.3-1.1,0.1-1.7-0.1c-0.1,0.1-2.2,0.4-2.4,0.3l-0.1,0.1c-0.1,0-0.4,0-0.5-0.1h-0.4l-0.3-0.1l-0.1,0.1c-0.7,0-2.2,0.4-2.5-0.3
		v0.3c-0.3,0.1-2.1,0-2.4-0.1l-0.1,0.1h-1.1l-0.1-0.3c0,0.1-0.1,0.1-0.1,0.3c-0.1-0.1-0.8,0-1.1,0v-0.5l-0.1,0.5
		c-0.3-0.1-0.5,0-0.8,0.1l-0.7-0.3c-0.4,0.7-1.2-0.4-1.1,0.3h-0.7v0.1h-0.4l0.1-0.4c0.1-0.5-0.4,0.5-0.4,0.5c-0.4,0-0.7-0.1-1.1-0.1
		l-0.1,0.1c-0.4-0.1-1.2,0-1.6,0l-0.3-0.1l-0.1,0.1h-0.3c-0.3-0.5-0.1-0.4-0.3,0.1l-0.7,0.1v0.3h-0.3c0,0.1,0.3,0.9,0.1,1.1h-0.9
		c0-0.1,0.3-0.4,0.1-0.5l-0.4,0.8c-0.4,0-1.6,0.4-2-0.1v0.3c-0.1,0-0.1-0.1-0.3-0.3c-0.1-0.1-0.1,0.1-0.1,0.3h-1.6l0.3-0.1
		c-0.7,0.1-1.2-0.1-1.7,0.1c-0.1,0.9,0,8.7,0.1,9.6c0.3,1.4,0.1,4.2,0,5.7c-0.1,0.8,0,2.6,0.1,3.4c0.4,2.8,0.1,11.1,0.1,14.5
		c-1.6-3-8.7-11.3-9.5-13.6c-0.4-0.1-2.2-2.8-2.6-3.3v-0.4c-0.3,0-0.7-0.7-0.8-0.8c-2.6-3.3-4.9-7.1-7.4-10.5
		c-2.8-3.8-6.1-7.9-8.4-12c-0.3,0-0.4,0.1-0.5,0.4c-0.1,0-0.7,0.1-0.8,0.1c-0.3,0.3-0.7,0.8-1.1,0.7c0,0.7-0.9,0.8-1.2,1.2
		c-0.1-0.1-0.3,0-0.1,0.1c-0.4,0.1-1.1,1.3-1.6,1.1l-0.4,0.5c0.3,0.3,0.5,0.8,0.8,1.2c-0.3,0.5-1.2,0.9-1.6,1.6h-0.1
		c-0.1,0.1-0.5,0.4-0.8,0.4l-0.8,0.8c-0.1-0.1-0.4,0-0.3,0.1c-0.4,0.7-1.7,1.3-2.4,1.8c0.1-0.4,0-1.1-0.1-1.4c-0.5,0-2.9-0.1-3-0.4
		c-0.1-0.1-0.1,0.1-0.1,0.3l-0.3-0.1v-0.4l-0.3,0.1c0,0.1-0.1,0.4-0.3,0.5c-0.3-0.1-0.4-0.3-0.7-0.1c0-0.1-0.3-0.1-0.4-0.1
		c0,0,0,0.1-0.1,0.1c-0.3,0-1.2,0.3-1.3-0.1L481,205c-0.1,0-1.1-0.3-1.2-0.1c-0.1,0.5,0,0.9,0,1.4l-0.1-0.1h-0.1l0.1,0.3
		c0,0.3-0.4,0.3-0.5,0.3v-0.3l-0.1,0.3h-1.2l0.1,0.5l-0.7-0.5v0.1h-0.4v-0.4c0,0-0.3,0.4-0.4,0.1v0.3c-0.3,0-0.7-0.1-0.9,0l-0.3-0.1
		v-0.8c-0.1,0.3-0.3,0.7-0.3,0.9l-0.1-0.1l-0.3,0.3l-0.5,0.1c0-0.3,0.1-0.5,0.3-0.8c-0.1-0.4-0.1-0.9,0-1.3c0-1.3-0.3-2.5-0.4-4
		c-0.5,1.2,0.3,2.4-0.1,3.6l0.3,0.1h-0.3l-0.1,0.4h0.3v1.8l-0.3,0.1l-0.1-0.3c-0.3,0.3-0.3,0.1-0.5,0c0,0.1-0.3,0.1-0.3,0.1v-0.3
		l-0.1-0.9l-0.1,0.5l-0.1-0.4c-0.8,0.4-1.6-0.4-1.7,0.8l-0.7,0.1l-0.1,0.3c-0.1,0-0.4,0-0.5,0.1c0,0.7-0.1,4.5,0,4.7
		c-0.1,0.8,0.4,2.5-0.4,2.8h0.3c0,4.9,0.9,69.6,0.8,69.8h-0.5l-0.3,0.3c0,1.6-0.1,3-0.1,4.6h0.1l-0.3,1.4l0.1,0.4
		c-0.1,0.7-0.4,6.1-0.4,6.1s0.9,0,1.4,0.3l0.1-0.1c0,0,0,0.1,0.1,0.1c0.1,0,0.3-0.1,0.4-0.3c0-0.1,0.1-0.4,0.1-0.5
		c0.1,0.1,0.3,0.4,0.3,0.5l0.1-0.1v0.8l0.1-0.4c0.3,0,0.4,0.4,0.5,0.5h0.3c0,0.3-0.3,0.7-0.3,0.8c0.8,0.1,1.7,0.1,2.5,0.5
		c0.8-0.1,1.7-0.3,2.5-0.1c0.3-0.1,0.5-0.1,0.8-0.1l0.3,0.1c0.7-0.3,0.9-0.1,1.6,0l0.3-0.1h1.2l0.1-0.1h0.4v0.1h2
		C483.6,299.2,484.4,299.4,484.3,299.6z"/>
	<path d="M81.6,410.1c-0.3-0.3-0.4-0.7-0.5-1.1C81.1,409.8,81.9,410.6,81.6,410.1z"/>
	<path d="M164.3,321.3c0-1.2,0-2.4-0.3-3.6l-0.3-0.1v-0.1h-0.7l-0.1-0.4l-0.3,0.7h-0.3c0.1-0.3-0.1-0.3-0.3,0
		c-0.3-0.3-0.7-0.1-0.9,0l-0.1-0.1l-0.1,0.1l-0.4-0.1c-0.3,0.1-0.8,0.3-1.1,0.3l-0.1-0.3c-0.3,0.1-1.8,0.1-2.2,0.1v-0.7l-0.3,0.1
		c-0.1-0.3-0.1-0.8-0.1-1.1c-0.9,0-2.2,0-3.2,0.3c-0.1-0.3-0.7,0-0.9,0l-0.5-0.3c-0.4,0.1-1.1,0.3-1.4,0c-0.3,0.1-0.7,0.4-1.1,0.4
		l-0.3-0.1c-0.3,0.3-0.7,0.3-0.9,0.3l-0.1-0.3c-0.1,0-0.3,0-0.3,0.1c-0.7,0.1-1.6,0.1-2.2,0.1c-0.1,0.3,0,0.9,0,1.2
		c-0.3-0.3-0.5-0.4-0.5-0.9l-0.3,0.4c-0.1,0-0.1-0.3-0.1-0.4l-0.1,0.4l-0.7-0.3c-0.3,0.1-0.4,0-0.7-0.1c-0.1,0.1-0.4,0.1-0.5,0
		l-0.1,0.1c-0.1,0-0.3-0.1-0.4-0.3c-0.1,0.1-0.5,0.3-0.7,0.1l-0.4,0.1l-0.3-0.1l-0.3,0.3l0.4,0.9c-0.5,0-0.9-0.5-1.2-0.9l-0.3,0.1
		c-0.3-0.4-0.9-0.4-1.2-0.8c-0.3-0.3-0.5-0.8-0.9-0.9v-0.3l-0.4-0.1l-0.1-0.3h-0.4c-0.1-0.1-0.4-0.3-0.5-0.3
		c-0.9,1.7-8.3,11.2-8.3,11.9h-0.1c-1.8,1.7-4,5.1-5.3,7.2v0.1c-0.4,0.3-9.8,13.6-9.8,13.8c-0.3,0.1-2.4,3.2-2.5,3.6
		c-0.5,0.4-3.7,4.9-4.1,5.4H106l-0.1-2.6c0.3-0.4-0.1-1.2,0-1.7c0.3-1.3,0.5-28.7,0.1-29.3c0,0.3-0.1,1.4-0.1,1.4l-0.3-0.7
		c-0.1-3.3-0.1-6.7-0.8-9.9c-0.8,0-1.4,0.3-1.8,0.4v0.3c-0.3,0.1-0.5,0.1-0.8,0c0,0.1,0.1,0.3,0.1,0.4h-0.4l-0.3-0.3l-0.5,0.8h-0.4
		c0-0.3-0.1-0.4-0.1-0.7h-0.1c0,0.3,0.1,0.5,0.1,0.8l-0.4-0.1c0-0.1-0.1-0.3-0.1-0.4l-0.1,0.1v0.4h-0.4l-0.3-0.5v0.5l-0.5-0.1
		l-0.1,0.1c-0.7-0.4-2.5-0.1-3.3-0.1l-0.3-0.3H94l-0.1-0.3l-0.1,0.3c-0.5-0.3-0.3-0.4-0.7-0.7c-0.5,0.3-2,0.4-2.5,0.1
		c-0.8,0.3-1.8,0.1-2.6,0.1c0,0.3,0,0.9,0.1,1.2c0.1,0.3-0.7,0.4-0.7,0.4h-2v0.1H85l-0.1-0.1h-1.2l-0.3-0.1c-0.7,0.1-0.9,0.3-1.6,0
		l-0.3,0.1c-0.3,0-0.5,0-0.8-0.1c-0.8,0.1-1.7,0-2.5-0.1c-0.8,0.4-1.7,0.4-2.5,0.5c0,0.1,0.3,0.5,0.3,0.8h-0.3
		c-0.1,0.1-0.3,0.5-0.5,0.5l-0.1-0.4v0.8l-0.1-0.1c0,0.1-0.1,0.4-0.3,0.5c0-0.1-0.1-0.4-0.1-0.5c-0.1-0.1-0.3-0.3-0.4-0.3
		c-0.1,0-0.1,0.1-0.1,0.1l-0.1-0.1c-0.5,0.3-1.4,0.3-1.4,0.3s0.3,5.4,0.4,6.1l-0.1,0.4l0.3,1.5h-0.1c0,1.6,0.1,3,0.1,4.6l0.3,0.3
		h0.5c0.1,0.3-0.8,65-0.8,69.8h-0.3c0.8,0.3,0.3,2,0.4,2.8c-0.1,0.3,0,4.1,0,4.7c0.1,0.1,0.4,0.1,0.5,0.1l0.1,0.3l0.7,0.1
		c0.1,1.2,0.9,0.4,1.7,0.8l0.1-0.4l0.1,0.5l0.1-0.9v-0.3c0,0,0.3,0,0.3,0.1c0.3-0.1,0.3-0.3,0.5,0l0.1-0.3l0.3,0.1v1.8h-0.3l0.1,0.4
		h0.3l-0.3,0.1c0.4,1.2,0.5,0.9,0.5-0.4c-0.1-0.4-0.1-0.9,0-1.3c-0.1-0.3-0.3-0.5-0.3-0.8l0.5,0.1l0.3,0.3l0.1-0.1
		c0,0.3,0.1,0.7,0.3,0.9V409l0.3-0.1c0.3,0.1,0.7,0,0.9,0v0.3c0.1-0.3,0.4,0.1,0.4,0.1v-0.4h0.4v0.1l0.7-0.5l-0.1,0.5h1.2l0.1,0.3
		V409c0.1,0,0.5,0,0.5,0.3l-0.1,0.3h0.1l0.1-0.1c0,0.5-0.1,0.9,0,1.4c0.1,0.1,1.1-0.1,1.2-0.1l0.1,0.3c0.1-0.4,1.1-0.1,1.3-0.1
		c0.1,0,0.1,0.1,0.1,0.1c0.1,0,0.4,0,0.4-0.1c0.3,0.1,0.4,0,0.7-0.1c0.1,0.1,0.3,0.4,0.3,0.5l0.3,0.1V411l0.3-0.1
		c0,0.1,0,0.4,0.1,0.3c0.1-0.3,2.5-0.4,3-0.4c0.1-0.4,0.3-1.1,0.1-1.4c0.7,0.5,2,1.2,2.4,1.8c-0.1,0.1,0.1,0.3,0.3,0.1l0.8,0.8
		c0.3,0,0.7,0.3,0.8,0.4h0.1c0.4,0.7,1.3,1.1,1.6,1.6c-0.3,0.4-0.5,0.9-0.8,1.2l0.4,0.5c0.5-0.3,1.2,0.9,1.6,1.1
		c-0.1,0.1,0,0.3,0.1,0.1c0.3,0.4,1.2,0.5,1.2,1.2c0.4-0.1,0.8,0.4,1.1,0.7c0.1,0,0.7,0.1,0.8,0.1c0.1,0.3,0.3,0.4,0.5,0.4
		c2.4-4.1,5.7-8.2,8.4-12c2.5-3.4,4.7-7.2,7.4-10.5c0.1-0.1,0.5-0.8,0.8-0.8v-0.4c0.4-0.5,2.2-3.2,2.6-3.3
		c0.8-2.2,7.9-10.5,9.5-13.6c0,3.4,0.3,11.7-0.1,14.5c-0.1,0.8-0.3,2.6-0.1,3.4c0.1,1.4,0.3,4.2,0,5.7c-0.1,0.9-0.3,8.7-0.1,9.6
		c0.5,0.3,1.1,0,1.7,0.1l-0.3-0.1h1.6c0,0.1,0,0.4,0.1,0.3c0.1-0.1,0.1-0.3,0.3-0.3v0.3c0.4-0.5,1.6-0.1,2-0.1l0.4,0.8
		c0.1-0.1-0.1-0.4-0.1-0.5h0.9c0.1,0.1-0.1,0.9-0.1,1.1h0.3v0.3l0.7,0.1c0.1,0.5,0,0.7,0.3,0.1h0.3l0.1,0.1l0.3-0.1
		c0.4,0,1.2,0.1,1.6,0l0.1,0.1c0.4,0,0.7-0.1,1.1-0.1c0,0,0.5,1.1,0.4,0.5l-0.1-0.4h0.4v0.1h0.7c-0.1,0.7,0.7-0.4,1.1,0.3l0.7-0.3
		c0.3,0.1,0.5,0.3,0.8,0.1l0.1,0.5v-0.5c0.3,0,0.9,0.1,1.1,0c0,0.1,0.1,0.1,0.1,0.3l0.1-0.3h1.1l0.1,0.1c0.3-0.1,2.1-0.3,2.4-0.1
		v0.3c0.3-0.7,1.8-0.3,2.5-0.3l0.1,0.1l0.3-0.1h0.4c0.1-0.1,0.4-0.1,0.5-0.1l0.1,0.1c0.1-0.1,2.2,0.1,2.4,0.3
		c0.7-0.3,1.1-0.4,1.7-0.1c0.3-0.1,0.5-0.1,0.8,0l0.5-0.1c0,0.1,0,0.4,0.1,0.3l0.1-0.3c0.7,0.3,1.8,0.3,2.5,0.3
		c0.4,0,0.3-1.3,0.3-1.6v-6.9l0.3-16.5c0.3-18.1,1.7-36.1,0.9-54.3l-0.1-2.9l0.8-9C164.7,323.5,164.3,321.9,164.3,321.3z"/>
	<path d="M279.4,321c-0.7,0-1.8-0.7-2.2-0.5l-0.1-0.7l-0.4,0.5l-0.4-0.1l-0.3,0.1c-0.1-0.1-0.4-0.3-0.5-0.1c0.1-1.2,0.1-1.6,0.1-1.8
		l-0.7,1.7h-0.3l-0.1-0.3l-0.3,0.3l-0.4-0.3l-0.4,0.1l-0.5-0.1c0,0.1-0.3,0.1-0.3,0l-0.3-0.5l-0.1,0.5l-0.3,0.5
		c-0.3,0-0.5-0.4-0.3-0.8c-0.3,0-0.5-0.1-0.5-0.4h-0.4c0-0.1-0.1-0.4-0.3-0.4l-0.1,0.3c-0.3-0.1-0.8-0.3-0.9-0.5l-0.3,0.3
		c-0.4-0.1-1.4,0-1.3-0.7l-0.4,0.1l-0.9-0.3c0-0.4,0-1.6,0.5-1.6c0-0.3,2.8-3.2,3.3-3.4v-0.3c-0.8,0.4-4.2,3.7-4.3,4.9
		c-0.3,0-0.7-0.1-0.9-0.1c0.1,0.3-0.3,0.7-0.4,0.9v-1.1c-0.4-0.1-0.3-0.1-0.7-0.1v-0.3c-1.6,0-0.7,0.9-1.4,1.4l-2-0.3l-0.1-0.5
		c-0.3,0-0.8-0.1-0.9-0.4l-0.1,0.3l-0.3-0.3v-0.3l-0.3,0.3c-0.4-0.1-0.8-0.3-1.2-0.3v-0.3c-0.3,0.3-0.4,0.3-0.7,0l-0.5,0.5l-0.1-0.7
		c-0.3-0.1-0.4,0.1-0.4-0.3l-0.4,0.1c-0.4-0.1-2.2-1.1-2.5-1.1l-0.1-0.8l-0.8,1.7l0.1-1.1c-0.1-0.1-4.6-1.4-4.7-1.4l-0.4,0.1
		c-0.1,0.5-0.9,3.6-0.9,3.7l-0.7,1.2c0,0.4-0.4,2.6-0.5,2.8c-0.5,0-3.4,7.6-4.1,8.8c0.1,0.8-1.6,3.3-1.8,4.2
		c-0.1,0.5-0.3,0.9-0.5,1.4c-3,6.9-6.1,19.2-9.9,25.4c0,0.3-2.6,6.5-2.8,6.6c-1.1-2.2-9.5-18.4-9.4-18.8c-0.4-0.1-3.3-5.8-3.3-6.2
		c-1.1-1.3-7-13.7-7.9-15.5c-0.3-0.7-0.8-1.2-0.9-1.8v-0.8l-1.5-2.1c-0.4-0.3-5.4-11.7-6.2-12.4c-0.5,0.3,0.4,2.2-0.1,2.4v0.3
		l-0.5,0.4l-0.3-0.1l-0.7,0.5l-0.5-0.1l-0.3,0.4h-0.3c-0.4,0.1-0.4,0.5-0.7,0.8c-0.1,0.1-2.9,1.8-3.3,2l-1.3,0.9
		c-0.5,0.1-0.7,0.1-1.1,0.5l-0.5,0.1c-0.8,0.5-1.3,0.8-2.1,1.2v0.4l-0.5,0.1c-0.4,0-3.2,1.4-3.4,1.7c-1.8,0.1-3.4,0.7-4.7,2
		c-0.3,0.3-0.4,0.8-0.8,0.8c-0.3,0.4-1.6,1.1-2,1.3l0.7,1.3c-0.4,0.1-0.4,0.4-0.8,0.7l-0.4-0.5c0-0.5-0.8-1.6-0.8-1.6l-0.1,0.3
		c0,0,0.7,1.2,0.4,1.3l0.3,0.7l-0.5,0.4l-0.1-0.7h-0.3l-0.3-0.7c-0.4,0.1-1.8,1.7-1.8,1.7s1.2,1.8,1.3,3l3,5
		c3.6,7.2,4.3,9.9,8.3,16.9c0.7,1.2,1.2,2.6,1.7,3.8c1.1,2.6,2.9,5.5,4.2,8.2c0.9,1.7,1.6,3.4,2.5,5c1.3,2.4,5,9.1,5.9,11.3
		c0.5,1.2,3.7,7.8,4.1,8.2l2.2,5.1l2,3.2c1.1,2.4,0.8,1.4,2,3.8l1.2,2.5c0.1,0.3,0.7,1.2,0.5,1.2c0.4,0.9,2.5,5.3,2.9,5.8l0.5,0.1
		c0.5-0.3,0.9-0.9,1.6-0.9c0-0.5,0.5-0.7,0.8-0.9l0.5,0.5l-0.3-1.1l1.1,0.4l-0.1-0.5h0.8c0.3-0.4,1.2-0.9,1.7-0.9l0.1-0.8
		c0.3-0.1,0.4-0.3,0.5-0.3c0.1,0.1,0.4,0.5,0.5,0.5l0.1-0.4c0.3,0,0.7-0.3,0.9,0l0.1-0.4c0.4-0.1,2.2,0.4,2.5,0.7
		c0.5,0,0.7,0.4,1.3,0.4v0.9c0.3-0.3,0.3-0.4,0.8-0.5c0.3,0.3,1.6,0.8,2.1,1.1v0.9l0.5-0.9c0.4,0,0.4,0.7,0.8,0.9
		c0.7,0.4,2,0.7,2.6,1.2l0.3-0.4c0.5,0.3,1.3,0.8,1.8,0.9l0.5,0.8c0.1-0.1,0.1-0.4,0.4-0.4c0.7,0.1,0.4,0.3,0.9,0.5
		c0.5,0.3,0.8,0.7,1.3,0.9l0.4-0.4l0.3,0.7l0.5-0.1c0.4-0.4,2.1,0.8,2.6,0.5l0.7,0.4c1.7-3.6,7.1-18.7,8.4-20.2c0-0.4,2.9-7,3.3-7.9
		l11.2-26.4c3-7.1,5.1-14.5,8.2-21.6c0.9-2,1.7-5.3,2.9-7c0-0.3,0.3-0.4,0.3-0.7l-0.5,0.1c-0.1,0-0.4-0.1-0.4-0.3l0.3-0.5l0.4,0.1
		l0.5-0.7l0.4,0.1l-0.1,0.7l0.4-0.5l0.4,0.1c0.3-0.4,1.3-4.1,1.5-4.6l0.3-0.1c-0.3-0.7,1.1-4.7,1.1-4.7L279.4,321z"/>
	<path d="M369.8,325.8c0-0.5-0.1-1.2-0.3-1.7c-0.1-0.1-0.4-0.1-0.5-0.1s-0.4,0.1-0.4,0.4c-0.4,0-0.7,0.5-1.4,0.7l-0.3,0.3l-0.1-0.3
		l-0.7-0.1l-0.3,0.1h-0.5c-0.3,0-0.5,0-0.7,0.1c-0.1,0-0.4,0.1-0.5,0.3v0.9h-0.5l-0.1,0.3l-3.3,0.5c-0.3,0-0.4-0.1-0.7-0.1
		c-0.1,0-1.1,0-1.2,0.1l0.1-1.3l-0.3-1.1c-0.1-0.5,0-0.8-0.1-1.2c0-0.1-0.1-0.3-0.1-0.5s0.1-0.7,0.3-0.8l-0.3-0.1v-1.2
		c0.4,0,1.7-0.1,1.7-0.1l-0.1-0.3c0,0-1.7,0.3-2-0.1l-0.7-0.1v-1.7c0-0.3,0.1-0.4,0-0.7c-0.3-1.1-0.7-1.3-0.7-2.4l0.3-0.7
		c-0.1-0.3-0.1-0.5-0.1-0.8c-0.4-0.1-0.9,0-1.3,0c-1.2,0-2.5,0.1-3.7,0.1h-1.2c-0.7-0.1-1.8-0.1-3.4-0.1c-4.7,0-12.5,0.3-16.6,0.3
		c-1.6,0-1.7-0.1-1.7-0.1l-0.5,0.3c0,0-0.8-0.1-0.9-0.1c-2.8,0-6.7,0.3-9.9,0.3c-1.3,0-2.6,0-3.6-0.1c-0.8-0.1-2.1-0.3-3.2-0.3
		c-1.1,0-2,0-2.8,0.1c-0.9,0.1-2.8,0.3-4.9,0.3c-2.9,0-6.1-0.1-7.2-0.4c-0.4-0.1-0.9-0.1-1.5-0.1c-0.7,0-1.2,0.1-1.4,0.5
		c0,0.3,0.1,0.5,0.3,0.8v0.1c-0.5,0.3-1.3-0.1-1.6,0.3l-0.1,0.4h-0.5c-0.1,0.3-0.3,0.4-0.5,0.5c0,0.7-0.3,3.3-0.3,4l0.3,0.1v0.8
		c0,0.1-0.3,0.4-0.3,0.4v0.5l0.4,0.7c0,0,0,0.7,0.1,0.8l0.1,0.3c0,0.1-0.1,0.4-0.1,0.5c0,0.8,0.1,1.7,0.4,2.4c-0.1,0.4,0,0.9,0,1.7
		c0,1.7,0.1,4.7,0.1,6.1c0.1,0.1-0.1,0.7-0.4,0.7l-0.1,0.3c-1.3,0-5.7,0.1-7.9,0.1c-0.7,0-1.2-0.1-1.3-0.1v16.7
		c0,2.9,0.5,5.3,0.5,8.2l-0.5,0.5v2.8c0,2.1,0.1,4.9,0.1,4.9l-0.1,5.4l0.3,0.9c0.1,0.1,0,3.3,0,3.6l-0.3,0.1l0.1,2.8
		c0,0.5-0.1,7.4-0.1,7.4c0,0.4,0.1,0.7,0.1,1.1c0,0.1-0.3,10.1-0.3,10.3c0.1,4.3,0.1,17,0.4,17.5l0.9,0.1c0.1-0.1,0.1-0.3,0.3-0.3
		s0.1,0.1,0.3,0.1l0.1-0.1l0.5,0.3l0.1-0.3c0.9,0,1.8-0.1,2.8-0.1c0.7,0,1.3,0,2,0.1c0.3-0.1,0.8-0.1,1.3-0.1l1.6,0.1h0.7
		c0.9,0,2.1,0,2.6,0.1c0.3-0.1,1.2-0.1,2.1-0.1h4.2c1.1,0,2,0,2.2-0.1v-0.1c0.4,0,2.4-0.3,3.4-0.3c0.3,0,0.7,0.1,0.7,0.1l0.3-0.5
		l0.4,0.1h0.4v-1.5l3.3-0.1l0.1,0.4c0.1-0.3,0.1-0.5,0.5-0.5c0,0.4-0.3,0.7-0.4,0.9l0.3,0.1l0.5-1.1l0.1,0.7h0.3l0.1-0.5
		c0.4-0.3,0.5-1.4,0.5-2.6c0-1.2-0.1-2.5-0.1-3.3c0.1-0.9,0.3-1.8,0.3-2.8c0-2-0.3-4.1-0.3-6.1v-1.4l0.7-0.3h2.8
		c6.5,0,20.2,0,20.4,0.1v4.3c-0.1,1.2-0.1,2.5-0.1,3.8c0,2,0.4,2.9,0.4,4.7l-0.3,0.5c-0.1,0.1-0.1,0.4-0.1,0.7
		c0,0.1,0.1,1.3,0.1,1.4c-0.1,0.1-0.3,0.4-0.3,0.4v3.3c0.9,0,1.8,0,2.8,0.1c0.4-0.1,0.9-0.3,1.6-0.3c0.8,0,1.7,0,2.2,0.3h1.1
		c0.8,0,2,0.4,2.2,0.5l-0.1-0.5l2.6,0.1c0.4,0,4.1-0.1,4.6-0.1l0.7,0.1c2-0.4,5.7-0.7,9.1-0.7h1.3l0.5,0.1c0.1-0.1,0.7-0.3,0.8-0.3
		l0.5,0.1c0.1,0.3,0.3,0.3,0.5,0.4v0.5l0.7,0.1l0.1,0.7c0,0.7-0.4,1.1-0.4,1.7h0.1l0.1-0.5c0.1,0,0.1,0.1,0.3,0.1
		c0.4,0,0.5-0.1,0.9-0.1l0.1-0.1l0.3-0.1v-5.9l0.3-5.5c0,0-0.3-2-0.3-3c0-6.1,0.1-11.1,0-17.1l-0.3-1.7c0-0.1,0.3-0.1,0.3-1.7
		c0-2.6-0.1-6.5-0.1-9.4c0-2,0-3.4,0.1-3.6c0-0.8-0.3-1.8-0.3-2.6c0-1.1,0.3-2.1,0.3-3.2v-1.6l-0.4-0.9c0,0,0.4-1.2,0.4-4.3v-10.8
		l0.3-0.4l-0.1-1.4l-0.3-0.1v-2.2c0-2.2,0.3-4.6,0.3-6.9c-0.1-0.1-0.1-1.1-0.1-2.1c0-2.2,0.3-5.5,0.3-6.6c0-0.3-0.1-0.5-0.1-0.8
		c0-0.7,0.1-1.2,0.1-1.8V326h-0.4L369.8,325.8z M337.6,357c-0.1,0.4-0.3,1.1-0.3,1.8c0,1.7,0.3,4.1,0.3,5.8c0,0.9-0.1,1.7-0.3,2.1
		H336c-2.9,0-6.2-0.1-9.1-0.1c-1.3,0-2.4-0.1-3.4,0c-1.8,0.1-4.1,0.3-6.1,0.3c-1.4,0-2.8,0-4.1-0.1v-2.4c0-3.4,0.1-6.9,0.1-10.1V352
		l-0.1-5.5c2.5-0.1,5.1-0.1,7.6-0.1h16.5l0.1,5.3c0,0.9-0.1,2-0.1,2.9C337.5,355.4,337.5,356.2,337.6,357z"/>
	<path d="M472.2,323.9v-0.4c-0.5,0-0.7,0.1-1.1,0.3c-0.4-0.1-1.1,0-1.4,0.1c-0.4,1.1-0.5,0.3-1.2,0.8v0.5h-0.5l-0.1,0.3
		c-0.4-0.1-1.8-0.1-2.2-0.1l-0.1,0.3c-0.5,0.1-1.2,0.1-1.7,0c0-0.8-0.7-8.3-0.8-8.6c0-1.1-0.5-1.2-0.5-1.2l-0.1,0.4
		c0,0-0.8,0-1.2,0.4c-0.3,0-1.2,0.1-1.5,0c-0.1-0.4-0.1-1.1-0.1-1.1l0.1-0.5c-0.3-0.8-0.7-1.2-0.8-2.1c-1.6,0-3.7,0.1-5.1-0.1
		c-1.2-0.1-2.5,0-3.7,0c-4.2,0-8.7,0.5-12.9,0c-2.8-0.4-10.8-0.1-13.6,0c-1.7,0.1-4-0.4-5.7,0c-2.5,0.5-13.7,0-17.7,0l-0.5-0.3H398
		l-1.7,0.3c-2.6,0-3.4,0.1-6.1,0.1c-3.3,0-7.1,2.1-10.4,2.9l-0.1,0.1l-0.4-0.3c-0.1,0.3-0.3,0.3-0.5,0.4l-0.1,0.9l-0.7,0.4
		c0.1,0.3,0.5,0.4,0.8,0.5l0.7-0.3l0.3,0.5l-0.1,0.3c-0.1,0-0.4,0.1-0.7,0.3l0.1,0.3l0.4-0.3c0,0,0.1,6.3,0.1,7.1l0.1,0.1v0.4
		c0.1,0,0.7-0.1,0.9-0.1l0.5,0.1l0.3,0.5l-0.4,0.3c0,0.1-0.4,0.7-0.4,0.7l-0.3-0.1l0.1-0.8h-0.8c0.4,2.8-0.8,5.9-0.1,8.6
		c0.1,0.3,0.1,0.7,0.1,1.1c-0.3,1.8-0.4,3.2,0,5c0.1,0.4,0.3,2.8,0.3,3.2c0.5,0.1,4.6,0.1,5.1,0v1.2l-0.1,1.2c0.4,0.4,0,3.4,0.4,4.7
		l-0.3,0.1v5.4l0.1,0.3c0,0.3-0.1,0.4-0.1,0.7l0.1,1.7c-0.3,4.9,0.4,7.8,0,12.6l-0.1,1.7v3.2c-0.1,0.3,0,7.8,0,8.7
		c0.1,0.4,0.4,0.7,0.4,0.7s-0.4,4.1-0.5,4.6c-0.4,2.8-0.1,10.3,0,12.9c0.1,2.5-0.4,7-0.1,9.4l0.3,0.1l0.4-0.1l0.1,0.4l0.5-0.1
		c0.1,0.3-0.4,0.3-0.3,0.4c0,0.1,0.3,0.1,0.1,0.3l0.1,0.1h0.4l0.1-0.1l0.3,0.3l1.2-0.3l0.5,0.3c0.5,0,0.8-0.3,1.1-0.7l0.4,0.1
		c0.1-0.3,0.3-0.5,0.5-0.8l0.1,0.3l0.1-0.4c0.5,0,1.3,0,1.7-0.1v0.5h0.1l0.1-0.7h0.5c0.3,0.7-0.1,1.1,0.1,1.4c1.6,0.3,4.5,0,5.7,0
		l0.3,0.3c0,0,2-0.1,2.1-0.1h2.1c0,0,1.1,0.1,1.3,0c1.1-0.3,3.2-0.1,4.3-0.1c3.8,0.1,12.9-0.5,15.9,0c0.8,0.1,5.5,0,5.7,0.3
		c0.5-0.1,1.2-0.3,1.7-0.3l0.1,0.1c0.8-0.3,2.9-0.1,3.8,0l0.3-0.1h0.8l0.5,0.1c0.4-0.1,1.1-0.4,1.4,0c0.7-0.3,12-0.4,13-0.3
		c0.4-0.1,3.6,0,3.7,0c-0.1-0.1,0.3-0.8,0.3-0.8s0,0.8,0.1,0.8c1.3-0.1,2.4,0,3.7,0c0.4-1.6,0.1-6.9,0.7-7.6l0.1,0.1l0.3-0.1
		l0.3,0.9v-0.9c0.4,0,0.8,0,1.2-0.3l0.4-0.3l0.1,0.1h0.1l-0.3-0.8l-0.1-0.1c-0.3-0.5-0.5-7.2-0.5-7.2s0-0.4,0.3-0.4h0.5l0.4,1.7h0.1
		c-0.1-0.5,0-1.2,0.1-1.7c0.3,0,1.4,0.1,1.6-0.1l0.1,0.7l0.3-0.5l0.7-0.1c0-0.5,0.3-0.9,0.3-1.4l0.4,0.1c0.4-0.3,0.8-0.1,1.3-0.1
		c-0.1-0.3,0.1-0.7,0.1-0.9l0.3,0.1v0.4c0,0,0.1,0.1,0.1,0.4l0.3-0.1c0.1,0.1,0.8,0.3,0.8,0.3l0.1,0.4l0.4-0.1v-0.3h0.7
		c0.3-1.5,0.4-2.9,0.4-4.3c0-3.6-0.5-7.4,0-10.8c0.3-2.2-0.3-4.9,0.1-7.1c0.5-2.5,0.5-14.4,0.5-17.7c0-9.2,0.8-27.5,0.8-27.5l-0.1-5
		L472.2,323.9z M440,362.7c0.4,0.5-0.5,17.3-0.5,19.6c-1.8,0.3-9,0.4-10.5,0.1c-2.6-0.4-5.5,0.3-8.2,0c-0.5,0-1.2,0.3-1.7,0h-1.7
		c-0.1-6.7-0.1-13.6,0-20.3c0.1-5.7-0.3-11.5,0.1-17.1c7.8-0.1,15.3,0.1,23.1,0.3c0,2.1,0,4.1-0.1,6.3
		C440.5,351.9,440.3,361.7,440,362.7z"/>
	<path d="M564.4,340.9c-0.3-1.1,0.4-2.6,0.3-3.6c-0.1-1.1-0.7-4.2,0-5.1c-0.1-0.5-0.5-12.1-0.5-12.6v-0.8l-0.1-0.1l-0.3-0.4
		c-0.3-0.1-0.9-0.3-1.2,0c0-0.5,0-0.9,0.1-1.4c0.3-1.3-0.4-2.9-0.4-4.3c-4.7,0-9.9-0.4-14.6,0.1c-2,0.3-4.2-0.4-6.2-0.1
		c-5.3,0.7-10.8-0.3-16.1,0.3c-5.5,0.7-5.4-0.5-10.9,0.3l-6.1-0.3c-2.5,0.9-16.5-0.8-17.9,0.4l0.5,2.2c-0.5,0.4-0.7,0.3-1.3,0.7
		c-0.3,0.7,0.5,1.1,0.8,1.4l-0.1,0.4l-1.6-0.1l-0.1,0.8c0.1,0.7,0.4,1.4,1.1,1.7c0.4-0.1,0.8-0.1,1.2-0.1c0.4,0,0.1,0.9,0.4,1.3
		l-0.3,0.9c-0.3-0.1-0.8,0-0.9,0.3c-0.7-0.1-3.4,0-4,0.1l-1.1,0.4l-0.1,8.6l-0.1,9.4c0,0-0.1,8-0.1,12c0,13.6-0.5,40.5-0.5,40.5
		l-0.3,11.2c0,0,2.2-0.3,2.6,0.3l1.2,0.1l0.3-0.1c-0.1-0.1,0-0.4,0-0.4h0.3l0.1,0.4c0.5,0.1,1.3-0.3,1.7,0.1l0.3-0.3l0.3,0.1
		c0.1,0.5,0.1,1.2,0.4,1.6h0.1c0-0.8-0.4-0.9-0.1-1.8c0.3,0.4,0.8,2.8,0.8,3.3c-0.3-0.4-0.1-0.8-0.5-1.2c0.1,0.8,0.5,1.3,0.4,2.1
		c-0.1,0.8-0.4,2.8-0.4,3.6h0.3c0-1.6,0.3-1.2,0.4-2.8c0.1,0.1,0,1.5,0,1.7l-0.1,0.1c0,0.4,0,2.4,0.3,2.6c0.4,0,3.2-0.5,3.3-0.7
		c5.3,0.3,7.8,0.5,13,0.5h1.6l0.8-0.3l0.4,0.1l0.7,0.3c0.9-0.1,2.9-0.1,4,0l1.3,0.1l0.3-0.3c1.1,0.1,1.6,0,2.6,0l0.3-0.1
		c1.6,0.5,4,0.1,5.7,0.1h22.4c0.5,0,1.2-0.1,1.3,0.5h0.1l0.1-0.5c4.3-0.1,8.3,0.1,12.6,0.1v-1.8c0,0-0.4-0.8-0.1-1.2l-0.3-0.1
		c0.1-0.4,0.3-3.7,0.3-3.8h-0.3c-0.7-1.4,0.4-15.3-0.7-18.4H561c-0.3-0.1-0.5,0-0.9,0c0-0.7,0-1.3-0.1-2c0-0.4,0.3-0.5,0.4-0.9
		c0,0,0-0.4,0.1-0.4v-0.4l0.1,0.1c0-0.3,0.1-0.7,0.3-0.8c0.3,0,0.5,0,0.8-0.1v-0.8c0-0.1-0.5-0.5-0.4-0.5h0.4v0.4l0.1-0.4
		c-0.1-0.1,0-0.4,0-0.7h-0.5c-0.3-0.3-1.1-0.5-1.4-0.5c-3.7,0.3-7.6,0-11.3,0h-31.9c-0.1-0.4-0.3-1.7,0-2.1l-0.1-0.9
		c0.1-0.5,0.3-1.2,0-1.7c0.1-0.4,0.4-0.9,0.1-1.3l0.1-0.9c0.4,0,1.6,0,1.8,0.3l0.1-0.3c0.4,0,0.9-0.1,1.3-0.1l0.1,0.9v-0.9
		c0.5,0.1,1.8-0.3,2.1,0.3c0.7-0.4,1.3-0.4,2-0.3v0.3l0.3-0.1c0.5,0,1.1-0.3,1.6-0.1l0.3-0.5l0.1,0.3l-0.1,0.1c0.4,0.3,1.1,0,1.5,0
		c0-0.1,0.1-0.4,0.1-0.5l0.3,0.5l0.9,0.1c0,0.1,0.1,0.3,0.1,0.3s1.2-0.5,1.8-0.5l0.3-0.1l0.3,0.3c0.4-0.1,1.2-0.4,1.3-0.8
		c1.2-0.3,4.6,0.9,6.5,0.9c0-0.1,1.1-0.5,1.1-0.7h8.7c0.7,0,1.3,0.4,1.3,0.4s0.4-0.1,0.3-0.4c0.4-0.1,5.9,0,6.6,0v0.4
		c0.7-0.1,1.3,0.4,2,0.3c-0.1-4.5,0.3-8.8,0-13.3c-0.1-2.1-1.3-2.8-1.5-3.6l-0.7-0.1c0.7-1.2,1.2-2.5,0.1-3.7c0-0.4-0.1-0.9-0.3-1.3
		c-2.4-0.4-5.9,0.5-8.2-0.1c-0.7,0.3-27.8,0.1-31.9,0.1c0-1.7,0.3-3.8-0.1-5.4c0.3-0.1,0.1-1.6,0.1-2V345l0.4,0.1
		c0.1,0,0.4-0.1,0.5-0.3c1.5,0,3.4-0.1,4.9,0.1l0.3-0.1h0.8c0.7,0.1,1.2,0.1,1.8-0.1c0.7-0.3,1.3,0.3,1.8,0.3v-0.3
		c0.4,0,0.7,0,1.1,0.1c0.4-0.1,0.9-0.3,1.3-0.1l0.1,0.1c0.1-0.3,3,0,3.2,0.1c0.4-0.4,2.6-0.3,3.2,0l-0.3,0.1c0.9-0.1,2-0.1,2.9-0.1
		v-0.3c0.4,0,2.5,0.3,2.6,0c0.9,0,2,0,2.9,0.3v-0.3h0.4c0.1,0.1,5,0,5.8,0.1c1.5,0.3,4.9,0,6.5,0c0.1,0,0.1-0.1,0.3-0.1l0.3,0.3
		c0.1-0.1,6.5-0.4,6.9-0.1l0.3-0.1c0,0-0.1-1.2-0.4-1.5C564.7,342.1,564.7,342,564.4,340.9z M539,383.9c0.1,0,0.3-0.3,0.1-0.3
		c0-0.4,0.1-0.7,0.3-0.9l0.3,0.3l0.1,0.7l-0.1,0.5c-0.3,0.1-0.3,0.5-0.4,0.8h-2.6C536.7,384.4,538.7,384.4,539,383.9z M557.2,354.4
		c0.3,0.7,0.4,1.7-0.1,2.6C556.8,356.2,556.9,355.2,557.2,354.4z"/>
	<path d="M661.2,323.8c0,0-4.5,0-4.6,0.7c-0.1-0.4-0.5-0.9-0.5-1.4l-0.7-0.5l-0.3,0.3l-0.3-0.7l-0.3-0.1l-0.1,0.5v0.9h0.3v0.5
		l0.4,0.1l-1.7,0.3l-0.4-0.1l-0.1-0.4l-0.4,0.3l0.5,0.4l-0.1,0.3c-0.4,0.3-3.3-0.4-4.1-0.5c-0.3-0.4-0.3-4.2-0.1-4.9
		c-0.1,0-0.1-0.3-0.1-0.3c0-0.5,0.4-1.7,0.1-2.2c0-0.1,0.1-0.1,0.3-0.1v-0.3h1.1V316l0.1-0.3l-0.1-0.9h-5.8
		c-2.4,0.1-5.3-0.1-7.6-0.1c-4.6,0-9.4-0.3-14.1-0.3c-4.9,0-10,0.4-14.9-0.1l-0.1-0.5c-0.7-0.1-1.5,0.3-2.2,0.1
		c-3.6-0.4-8.7,0.5-12-0.1c-7,1.1-14.8-0.3-21.9,0.5c0.4,0.7,0,1.2,0.3,1.7l-0.1,0.4v0.5l-0.1,0.9h0.1l0.7-0.4v1.4
		c0.1,5,0.8,10.4,0.5,15.4c-0.1,2.2,0.7,4.5,0.3,6.7c-0.3,1.7,0.4,3.4,0.3,5.3c0.4,0.1,2.1,0.3,2.1,0.3l0.5-0.1c0,0,1.1-0.1,2.2-0.1
		c-0.1,2.6-0.1,5.8,0.1,8.4c0.4,4.5-0.4,9.2,0.1,13.7c-0.4,5.5-0.1,13.7-0.1,13.7l-0.3,3.2l0.3,0.4v5.7l-0.3,0.1c0,0.1,0,4,0.3,3.7
		c0.3,1.8,0.4,4.2,0.1,6.2c-0.5,0.4-0.4,0.9-0.3,1.5c-0.4,0.7-0.8,1.3-0.5,2.1v0.1l0.3,0.3v-0.3c-0.1-0.7,0-0.7,0.1-1.3l0.3-0.5
		c0.4-0.5-0.1-1.2,0-1.4l0.1-0.1l0.3,1.4l-0.3,0.8c0,0.7,0.1,0.5,0,1.2l-0.1,0.1l0.1,0.5c-0.4,0.4-0.4,1.2-0.9,1.6
		c0,0.3,0.1,0.4,0.3,0.5c0.7,1.1,0.4,1.6,0.7,2.6l-0.3,0.1c0,0.1,0.3,0.1,0.3,0.1v1.6c0,1.2,0.1,2.5-0.1,2.8c0,0.4-0.3,1.1-0.3,1.3
		l0.1,0.1l0.4-1.6h0.5c0.4,0,0.8,0.1,1.2,0.1l0.1,0.3l0.1-0.3c0.4,0,0.8,0,1.2,0.1c0.5-0.4,0.8,0,1.2-0.3c0.1,0.4-0.1,0.9,0.1,1.3
		c0.1-0.7,0.1-1.1,0.1-1.3c0.9,0.1,0.7-0.1,1.1,0.5V415l1.1,0.1l-0.8,1.8l0.8-0.8c-0.1,0.9-0.7,1.7-0.8,2.6l-0.1,0.7
		c0,0,0.3-0.3,0.3-0.4c0.4-1.4,0.9-2.6,1.3-4.1c0.7,0,1.2,0.1,1.8,0.3v0.4c0.1,0,0.3-0.4,0.3-0.5h0.5l0.1-0.1l1.6,0.3
		c0.3,0,0.8-0.3,1.1,0l0.3-0.1c0.4,0.1,0.9,0.1,1.3,0.4c0.3-0.3,0.5-0.1,0.8-0.3l0.5,0.1v-0.3l1.7-0.1c0.1-0.1,2.9-0.3,3.2-0.3v0.4
		l0.3-0.4c0.3,0,0.8-0.1,1.1,0.1l0.4-0.4h0.4c0.3,0,0.5,0,0.7,0.3v-0.3l0.7,0.1h0.7l0.1-0.1l0.5,0.1l0.4-0.3
		c0.8,0.4,0.9-1.1,0.9-1.6h0.3v0.7c0.3-0.1,0-0.5,0.1-0.7l0.4-0.1c0,0.1,0.1,0.5,0.1,0.7c0.1-0.3,0.1-0.4,0.1-0.7l0.4,0.1l0.1-0.1
		l0.4-0.1c0,0,0.3,0.9,0.4,0.5v-0.5h0.9l0.1,0.3l0.1-0.3h0.4l0.1,0.7v-0.7l0.5-0.1l0.1,0.3l0.3,0.1l0.3,0.4l0.3-0.1v-0.7
		c0-2.4-0.4-6.5-0.1-7.2c-0.3-0.5,0-7.6,0-11.5c0-2.6,0.4-8.2-0.1-11.3c-0.1-0.1,0.3,0,0.3,0l0.3,0.9l0.1-0.9c0.4-0.3,0.9,0,1.3-0.3
		l0.1-0.5l0.1,0.1l0.1-0.1c1.2,0.1,3.4-0.4,4.3,0.3c0,0.4-0.1,0.7-0.1,1.1l0.3-0.1v-1.2c0.7-0.1,5.4-0.3,5.8-0.1
		c0.4,0.5,0.3,1.3,0.9,1.8c0-0.4-0.4-0.8-0.4-1.2h1.2c0,0.1,0.1,0.7,0.3,0.5l0.1-0.5c0.3,0,0.7-0.1,0.9-0.1c0.3,0,0.9,1.1,0.9,0.8
		c0-0.3-0.1-0.4-0.4-0.7l1.4-0.1l0.3,0.5V382c0.4-0.1,0.8,0,1.3,0l0.1,0.7c-0.1,0.4-0.3,0.7-0.1,1.1c-0.8,1.3-0.9,0.7-1.7,1.4
		c0.4,0,0.9-0.3,1.3-0.5v0.9l-0.1,0.7h-0.3l0.1,0.4c-0.3,0.5,0.1,1.2-0.4,1.6h0.4l-0.3,0.7c0.1,0-0.1,0.8-0.1,0.9l0.1,0.1
		c-0.1,0.9-0.1,0.9-1.1,1.2l0.1,0.1c0.3-0.1,0.8-0.1,1.1-0.1c0,1.3,0.7,2.5,0.4,3.7c-0.7,2.9-0.7,7-0.7,10.3v3.2
		c0,0.5-0.1,2.6-0.3,4.1c0,0.7-0.1,1.2-0.1,1.3l0.1,0.5h0.3v0.3c0.3-0.3,0.5,0,0.8-0.1l0.5,0.1l0.1-0.1h1.7l0.3-0.1l0.4-0.1
		c0.3,0.1,0.5,0.3,0.8,0.3v-0.1c0.3-0.1,0.9,0,1.2,0.1h0.5l0.4,0.3c0.7-0.1,1.5,0,2-0.3l0.3,0.3c0.4-0.3,2.2-0.3,2.6,0
		c0.4,0,0.7,0.1,0.9,0.3l0.4-0.3c0.4,0,1.7-0.1,1.7,0.4c0.1,0,0.1-0.3,0.1-0.4h0.9v0.3c0.1,0,0.3-0.1,0.3-0.3c0.3,0,0.9,0.1,1.1-0.1
		l0.1,0.3c0.3,0,0.4-0.1,0.7-0.1l0.1,0.1v-0.8l0.1,0.3c0.1-0.4,0-0.8,0-1.2h0.3c-0.1,0.1-0.1,0.5,0,0.7l0.3-0.1v-0.4l0.3-0.1
		l0.1,0.7l0.1-0.1l0.1-0.5c0.3,0,0.7,0.1,0.9,0c0,0,0.1,0.4,0.1,0.3l0.1-0.3h0.4c0,0.1,0.1,1.1,0.3,0.9c-0.1-0.3,0-0.9,0.4-0.9
		c0,0.3,0.1,0.4,0.3,0.7v-0.5c0.8,0.4,0,0.8,0.4,1.2l-0.4-0.1l0.3,0.4h0.5l0.3,0.1l0.4-0.3l0.1,0.4c0.4-0.3,0.9,0,1.2-0.3l0.3,0.1
		l0.5-0.1c0.1-0.1,0.3-0.5,0.3-0.7h-0.3v-1.1h1.2l0.1,0.7l0.3-0.7c0-0.1,0.3,0,0.3,0v0.5l0.1-0.5l0.3,0.1c0-0.1,0.1-0.3,0.3-0.3
		l0.3,0.7l0.1-0.7c0.1-0.1,2.1,0.3,2.2,0c0.3,0,0.7,0.1,0.9,0.3l0.3-0.3v0.5l0.4,0.1l-0.1-0.3c0.1-0.1,0.1-0.4,0.3-0.8
		c0.3-1.7,0.3-5.1,0.3-7.2c0-0.9,0-1.7,0.1-1.8c-0.5-1.1-0.7-25.3-0.7-29.8c-0.4,0-0.8,0.1-1.2,0.1l-0.5-0.3l-0.1-0.8
		c-0.3-0.1-0.8-0.3-1.1-0.3V372h-0.7l-1.1,0.3l-0.3,0.3l-0.1-0.4h-0.3c0,0.3,0.1,0.5,0.1,0.5l-0.1,0.4l-0.3,0.1c0,0,0.1-0.5,0-0.8
		v-0.3l-0.3,0.1c-0.4-0.3-0.8-0.1-1.2-0.1v-0.8l-0.1-0.1l-0.1,1.4c0,0-0.5-0.3-0.9-0.3c0,0.4,0,1.1-0.1,1.3c-0.7,0-1.4,0.1-2.1,0.1
		l-0.1-0.5c-0.3,0-0.4,0.1-0.4,0.4l-0.1-0.1c0,0,0,0.1-0.1,0.1c-0.1-1.1-1.1-4.6-1.1-4.6s0-1.7,0.4-2c0.1,0,0.5,0.1,0.7,0l0.1,0.3
		l0.3-0.3h0.1v-0.4h3.3c0.1-0.4-0.1-0.9,0.1-1.2h0.3v-0.4c0.8,0,1.2-0.3,2,0V365c0.1,0.1,0.8,0,1.1,0v0.3l0.4-0.4l0.7,0.4V365
		c0.9-0.1,2,0,2.9,0c0-0.4,0.1-0.8-0.1-1.1l0.1-0.3c0.3,0,0.5-0.1,0.7-0.4c0.3-0.5-0.3-0.8-0.3-1.1v-4.9c0-5.7,0.3-11.2,0.1-16.9
		l0.5-0.7L661.2,323.8z M628,358.8c0,0.3-0.1,0.7-0.1,0.9c-2.2,0-16.5,0.3-17.5,0c0-0.9-0.1-12.9,0-13.3c5.8-0.4,12.4,0.1,18.1,0.1
		C628.4,347.9,628.3,358.4,628,358.8z"/>
	<path d="M759.6,361.9c-0.1,0.1-0.4,0.3-0.5,0.5c0-1.1,0.4-2.4-0.5-3l-0.4,0.3c-1.1-0.1-1.7-0.1-2.8-0.1c0,0-0.1,0.3-0.3,0.3
		c-0.3,0-0.7,0-0.8,0.3l-0.1-0.1l0.8-0.8c-0.4-0.1-1.6,0.8-2,0.9l-0.3-0.1l-0.3,0.4c-0.1-0.1-0.5-0.3-0.7-0.1
		c-0.4-0.1-0.8-0.4-1.2-0.1c0-0.1-0.1,0.7-0.1,0.8h-0.3l0.1-0.7h-0.3c0.1,0.3-0.5,0.1-0.4-0.1l-0.4,0.1l-0.1,0.5l-0.4-0.3l-0.1-0.4
		l-0.1,0.3c-0.5,0-1.1,0-1.6,0.1l-0.1-0.4c0,0.3-0.3,0.4-0.5,0.3l-0.3,0.1c-0.3,0.1-0.5,0.1-0.8,0c-0.5,0.1-1.1,0-1.6,0
		c0-0.3,0.1-2.6,0.3-2.6l-0.1-0.4c0-0.3,0.1-0.4,0.3-0.5l-0.4-0.9c-0.1-1.7-0.1-2.5-0.4-4.2c-0.5,0-1.1,0-1.6,0.1l-0.7,0.7l-0.4-0.3
		l-0.4,0.5l-1.2-0.7l-0.4,0.3l-0.1,0.9l-0.5-0.1v-1.1c-0.4,0-0.4,0.5-0.8,0.5c0.1-0.4-0.1-0.9-0.1-0.9s-0.4,0.8-0.8,0.9l-1.3,0.1
		l-0.4-0.3h-2l0.3,0.4c-0.5,0-0.9-0.3-1.5-0.3l-0.3-0.3c-0.4,0.3-2.9,0.4-3.3,0.1l-1.6-0.8c0-0.1-0.1-0.1-0.1-0.3
		c-0.5,1.1-0.7,0.1-1.2,0.5l-0.1-0.3l-0.7,0.1l-0.1-0.1l-0.1,0.5l-0.4-0.5l-0.7,0.1l-0.3-0.4c-0.3,0.8-1.3,0.4-2.1,0.4l-0.3-0.4
		l-0.3,0.3c-0.4,0.1-1.2,0.1-1.6,0.1c-0.1-0.3,0-0.4-0.3-0.5v0.5h-2.6l-0.5-1.2v0.9c0,0.3-1.1-0.1-1.3,0.3l-0.1,0.5h-1.2
		c0-0.3-0.4-1.1-0.5-1.3l-0.1,0.9l-0.3-0.5c0,0.1-0.1,0.4-0.3,0.4c-0.3,0-0.5-0.1-0.5-0.5l-0.3,0.4l-0.3-0.7l-0.3,0.5
		c-0.5,0-2.4,0.1-2.6-0.4l-0.1,0.3c-0.3,0.1-0.5,0.1-0.8,0l-0.1-0.9c0,0.3-0.3,0.8-0.3,0.9c-0.4,0-1.2,0.1-1.4,0
		c-0.3,0-0.4,0.4-0.5,0.7l-1.6-0.1c0-0.7-0.1-5.5,0-5.7l-0.3-0.4l0.3-1.1c0.7,0.5,2.2,0,2.5,0c2.1-0.1,22.8,0.3,23.1,0.5l0.3-0.3
		c0.3,0,0.7,0.4,1.1,0.3c-0.1-0.1,0.3-0.1,0.3-0.1l1.2-0.1c0.9-0.1,2,0,2.9,0.1c0.9,0.1,4.7,0.3,5.7,0.1c4.3-0.7,15.9,0.7,19.2-0.3
		c0-0.3,0-3.2,0.1-3.6c-0.4-1.1-0.1-4.1-0.7-4.5c-0.4,0-1.2-0.1-1.4,0.1c-0.3-0.1,0-0.4,0-0.7c0-0.4-0.3-0.9-0.3-1.3
		c0.1-1.2-0.5-7.1-0.3-8.2c0.1-0.5,0.1-0.9,0-1.5c-0.1-0.3-0.4-2.9-0.4-3c0.1-0.7,0.4-1.2,0.3-2c-0.5,0-1.1-0.1-1.4-0.3l-0.3,0.1
		l-0.1-0.1l-0.8-0.3c0-0.5-0.3-3.3,0-3.4c0,0.1,0.1-0.3,0.1-0.3H753V313l-1.1-0.1h-0.3c-1.6,0-8.3,0.4-9.2,0c-0.4,0.1-0.8,0-1.2-0.1
		c-0.3,0-1.1,0-1.3-0.1c-0.5,0.3-1.1,0.4-1.6,0.1c-0.5,0.1-0.9,0.1-1.4,0.1l-0.3-0.3l-0.3,0.3c-0.8-0.1-1.7,0-2.5,0
		c-7.8-0.1-15.5,0.1-23.3-0.3l-0.1-0.1c-1.5,0.3-2.9,0-4.3,0c-6.1,0.3-12.1,0.1-18.2,0.3l-3-0.1c-0.4,0-1.1,0.1-1.4,0l-0.1,0.4
		l-0.1-0.4c-3.2-0.7-1.5,2.1-2,5.4c0.3,0.4,0.3,0.8,0.1,1.3c-2,0.1-2.6,0.9-4.9,0c-0.1,0.1-0.5,0.3-0.7,0.1v0.1
		c-1.1,0.1-2-0.5-3-0.1c0,0-0.1-0.1-0.1-0.3v0.3c-0.4,0-0.8-0.1-1.2-0.1l-0.1,0.1c-0.7-0.4-1.1,0.1-1.6,0c0,6.5-0.7,19.1-0.7,19.1
		l0.1,12c0,0,0.9,6.6,0.7,6.8c0,0.7,0,5.3,0.3,5.8h0.8l0.1-0.4l0.1,0.4c0.2,0,0.6-0.1,0.9,0l0,0.1l0-0.1c0,0,0.1,0,0.1,0.1
		c0.2-0.1,0.1-0.2,0-0.3l0-0.1c0.5-0.1,0.5,0.1,0.9,0.4c0.3-0.1,0.7-0.4,0.9-0.3l0.3,0.4l0.3-0.4l1.2,0.3l0.1-0.3
		c0.4,0.1,0.5,0.1,0.9,0.1l0.3-0.1h0.3l0.1,0.4l0.1-0.3c0.8,0,0.8,0.5,0.8,1.2l-0.4,0.1l0.4,0.1c0.1,0.2,0.1,0.4,0.2,0.7
		c0-0.2,0-0.3,0-0.4l0.4,0.1c0,0.7,0.3,1.7,0.4,2.2l0.9-0.4c0,2.1,0.3,2.1,0.4,1.1c0.1,1.1-0.1,1.8,0.4,2.9l-0.3,0.3l0.1,1.5
		l0.1,0.3l0.3-0.1c0.1,0.3,0.4,0.5,0.7,0.5c0.3,0,0.4,0.3,0.7,0.4l0.1,0.4c0.9,0.1,12.6,0.1,12.9,0.4l0.4-0.3c2.5,0,10.3,0,12.1,0.4
		l1.1,0.3c0.4-0.3,16.6,0.1,17.8,0.1l0.1,4.7c0,0.1,0,0.3-0.1,0.5l0.1,0.4c-0.4,0.1-5.3,0-5.4-0.1c-0.8,0.3-21.2,0-21.5-0.1
		c-1.8,0.4-12.5-0.1-14.5-0.1c-2.1-1.8-11.5,0-12.8-0.7c-0.5,0.1-0.7-0.4-1.3,0c0.1,0.1-0.1,0.4-0.1,0.4c-0.3,1.6,0.7,6.9-0.4,8.7
		l-0.4,0.1c0,0.5-0.3,1.4,0,1.8l0.3,0.1c0.5,1.6-0.4,9.5-0.8,11.3c-0.4,1.8,0.8,3.7,0.3,5.4c-0.1,0.4-0.1,0.7-0.1,1.1
		c0,0.4-1.3,1.8-1.3,1.8h0.1l1.5-1.2c0.5,0.7-0.3,1.6,0,2.5c0.3,0,0.7,0,0.9-0.1l0.1,0.3c0.5,0,6.1,0.1,7.4,0.1l0.3-1.1
		c0.4,0.1,0.9,0.5,1.1,1.1c1.1,0.1,6.7,1.2,7.2,0.4c9,0.3,17.9,0.4,26.9,0.3c3,0,9.4,0.4,11.5,0.1c4-0.5,14.8,0.1,19,0.4
		c0.4,0,0.7-0.1,1.1-0.3v-0.3c0.4,0,0.7,0.3,1.1,0.3c0-0.1,0-0.4,0.1-0.5l-0.1-0.3l-0.3-0.1c-0.3-0.5-0.3-1.4-0.4-1.6
		c0-0.3,0.1-0.5,0.5-0.5l-0.5-0.4c0.5-0.5-0.3-1.1,0-1.3l0.1-0.4l-0.9-0.1l0.1-0.3c0-0.1-0.1-0.1-0.3-0.1l0.1-0.3
		c-0.1,0-0.5,0.3-0.7,0.3c0-1.7,0-4-0.3-5.7l0.9,0.4l0.1-0.4c0.3,0,0.9,0,1.1,0.4l0.1-0.5c0.3,0,0.5,0,0.8,0.1
		c0.8-0.3,2-0.3,2.9-0.4c0,0.1,0.3,0.7,0.3,0.5l0.3-0.5c0.5-0.1,1.3-0.1,1.8,0.1l0.1-0.4l0.7-0.3v-0.4c0.3,0,0.4-0.1,0.7-0.1v-0.8
		l0.3-0.1l0.3,1.1l0.3-0.8h0.8l0.1,0.1c0.1-0.1,0.5-0.4,0.8-0.1v-0.7l0.4,0.7l1.2-0.3v0.3l0.5-0.4l-0.1,0.7l0.1,0.8l0.3,0.4l0.1-2.5
		l0.3-2.6c0-6.9-0.4-9.1-0.4-15.9l0.4-0.8c0.1-0.1-0.1-0.5-0.1-0.7l-0.3-0.3c0.1-0.4,0-8.6-0.1-9.4c0-0.5,0.3-1.8,0-2.2l-0.1-1.1
		l0.3,0.1l0.5,1.1v-0.7c0,0-0.8-1.3-0.4-1.6c0-0.1,0.1-0.4,0-0.4c0-0.4,0-0.9-0.1-1.2c1.1-1.6,0.4-1.1,0.7-2
		c0.3-0.7,0.8-1.2,0.8-1.2v-0.8l-1.1,1.4C759.7,360.3,759.6,361.3,759.6,361.9z"/>
	<path d="M678.6,366.1c0.1-0.2,0-0.5,0-0.8C678.6,365.6,678.6,365.9,678.6,366.1z"/>
	<path d="M678.6,366.1c0,0.1,0,0.1-0.1,0.2C678.6,366.4,678.6,366.3,678.6,366.1z"/>
	<path d="M62.8,408.7c-0.1-0.3-0.1-3.5,0.1-3.6c-0.4-0.7-0.1-2.5-0.4-3.4c-0.1-0.4,0.1-0.7,0.1-1c-0.3-3,0-5.5-0.1-8.5
		c0-0.3-0.5-1.4-0.4-1.7l0.5-0.3l0.1-0.3c-0.3-0.1-1.4-0.1-1.7,0l-0.3-0.1c0.1-0.1,0.1-0.4,0-0.4c-0.5-0.3,0-1.3-0.3-1.8l-0.1,0.3
		l-0.5-1.2c0-0.3,0.3-0.7,0-1l-0.3,0.3l-0.3-0.9l-0.4,0.3c0-0.3,0-0.4-0.1-0.5l-0.4-0.1c0-0.8-0.4-2-0.4-2.5c-0.8-0.4-0.4-0.5-4.7-1
		l-0.4,0.4c-0.5,0.1-0.7-0.3-1.2-0.3l-0.1-6.8c0.1-0.8,0.3-10.3,0.1-10.7c0.4-2.1-0.4-4.3,0-6.4c0.5-3.4-0.3-8.6,0.1-12
		c2.5-0.1,7.2,0.4,9.2-0.1c-0.1-1.6-0.1-3.5-0.1-5.1c0-0.8-0.6-1.6-0.3-2.3c-0.1-0.4-0.1-0.9,0-1.3c0.5-2.6-0.5-8.1,0.3-10
		c-0.3-0.7-0.5-2.1-0.1-2.6c-0.5-1-0.1-3.5-0.8-4.6c0-0.4-0.1-0.5-0.5-0.4l0.1-0.5l-0.5-0.1c-0.1,0-0.5,0-0.7-0.1
		c0.1-1.3-0.4-3.1,0-4.3l-0.3-0.4c-0.9-0.1-7.9-0.1-8.9,0c-2.5,0.4-11.2,0.3-14.2,0.1c-5.2-0.1-10.4,0-15.6,0c-3,0-6.5-0.4-9.5,0
		c-0.4,0.7-0.5,1.6-0.3,2.2L9.6,316l0.1-0.3c-0.1,0.1-0.4,0.1-0.5,0.1c0,0.8,0.1,1.4,0.3,2.1l0.1,0.1l0.1,0.5l-0.1,0.1
		c0.1,1,0.4,1.7,0.7,2.7c0.3,0.9,0.1,2.6,0.1,3.6c0,0.7,0.3,1.3,0.3,2c0,2.1,0,4,0.3,6.1c0,0.4-0.3,1-0.4,1.4c0.1,1.3,0,2.5,0.1,3.6
		c0,0.5-0.3,0.9,0,1.4c0.4,1.2,0,5.3,0.4,6.1c2,0,7.2-0.7,9-0.1c0,11.5,0.1,24.2-0.1,35.7c-3.1,0.3-9-0.7-11.7,0
		c0,0.3,0,1.4-0.1,1.7c0.3,0.7,0.5,1.3,1,1.6l-0.5,1c0.5,0.3,0.3,0.9,0.5,1.4c0.3,0,0.5,1.7,0.8,1.7c0,0.3,0.1,2.3,0.4,2.6
		c-0.1,0.7,0.3,1.3,0,2c0.3,0.7,0.5,6.3,0.3,6.6c0,0.5,0.4,1.4,0,2c0.1,0.1-0.1,1-0.4,1.2l0.7,1.7c0,0.9,0.3,8.3,0.3,8.3l0.5,0.3
		c6.6-0.7,13.2,0.5,19.8-0.3c1.3-0.1,2.7,0.3,4,0.1c2-0.3,27.9,0,27.9,0S62.5,409.6,62.8,408.7z"/>
	<path d="M838.6,181.3c-0.6-5.3-1.9-13.7-2.8-18.9c-0.6-3.8-1.2-10.2-2-14c-1.3-6.2-2-12.7-3-19.1l-7.3-49.4
		c-0.5-3.3-2.8-19.4-3-19.6l-0.4-0.1c-0.8,0.3-1,0.2-1.9,0.3l-0.5-0.2l-0.1,0.3l-1.2,0.2l-0.4-0.1c-0.3,0.5-2,0.3-1.6,0.5
		c-0.5,0.2-1,0.2-1.5,0.1l-0.1,0.2c-1.1-0.3-1.9,0.3-3.1,0.2c-0.5,0.4-1.1,0.5-1.7,0.3l-0.3,0.2l-1,0c-0.2,0-0.3,0.1-0.3,0.2
		l-0.3,0.1l0,0c-0.1-0.1-0.1-0.3-0.2-0.3l0-0.7l-0.3,0c0.2-0.7-0.2-1.5,0.1-2.3c-0.6-1.8-0.8-3.3-1.2-5l0.2-0.2
		c-0.2-0.7-0.2-1.4-0.4-2c0.2-0.2,0-0.7-0.1-0.8c0.2-0.7,0-1.6-0.3-2.2c-0.3,0-0.5,0.1-0.8,0c0.4-0.1,0.7-0.1,0.9-0.5
		c-0.1-0.3-0.7-2.8-0.7-2.8l0.2-0.4l-0.4-0.6c-8.6,1.9-17.6,2.9-26.4,3.9c-5.2,0.6-13.3,1.9-18.5,2.7c-3.7,0.6-7.4,0.8-11,1.5
		c-1.7,0.4-8.4,1.4-17.3,2.8c-0.2-1.6-0.1-3.8-0.6-4c0-0.1-0.3-1.9-0.5-2l0.4-0.2c-1-1-0.7-1.7-0.9-3.1l0.2-0.2l-0.1-0.5l0.2-0.2
		l-0.8-0.7c0.3-0.6-0.4-1.3,0-1.5l0.4-0.2l-0.6-0.9l-0.3-1.6l-0.4-1.1l1.2-0.3l0.2-0.2l-1.7,0l0.1-0.4c0.2-0.3-0.1-0.7-0.3-0.8
		l-0.3-0.4l0,0c2.5-0.4,5-0.8,7.5-1c4.3-0.7,4.1-0.7,11.9-2.3l-0.2-1.4l-0.3-0.4l0.2-0.5c-0.4-0.6-0.1-1-0.3-1.6l0-0.3l-0.4-0.1
		l-0.4-0.5l-0.4-0.1l0-0.3c-0.3,0-0.6-0.3-0.8-0.6c0.1-0.3,0.4-0.9,0.4-1l0-0.3c0-0.1-0.2-0.3-0.2-0.4c0-0.1,0.1-0.4,0.2-0.4l0-0.3
		l-0.4,0.1c0-0.3-0.1-0.7-0.3-0.9l0.1,0c0.1,0,0.7-0.1,0.7-0.2l0-0.1c-0.1-0.4-0.8-2.2-0.5-2.6l-0.2-0.2c0.5-0.1,1-0.2,1.5-0.3
		l-0.2-1.4l-0.3-0.4l0.2-0.5c-0.4-0.6-0.1-1-0.3-1.6l0-0.3l-0.4-0.1l-0.4-0.5l-0.4-0.1l0-0.3c-0.3,0-0.6-0.3-0.8-0.6
		c0.1-0.3,0.4-0.9,0.4-1l0-0.3c0-0.1-0.2-0.3-0.2-0.4c0-0.1,0.1-0.4,0.2-0.4l0-0.3l-0.4,0.1c0-0.3-0.1-0.7-0.3-0.9l0.1,0
		c0.1,0,0.7-0.1,0.7-0.2l0-0.1c-0.1-0.4-0.8-2.2-0.5-2.6l-0.2-0.3l0.3-0.5l-0.6-0.1c0.1-0.4-0.1-1.2-0.4-1.6L741,7l-0.2-0.3
		l-1.2,0.1l0.8-0.4l0-1l-0.2-0.1l-0.3-1.8c-0.2-0.1-0.3-0.4-0.4-0.6c0-0.3,0.1-0.4,0.2-0.6l-1.4,0.2l1.2-0.6l-0.1-0.8l0.2-0.3
		c0-0.3-0.2-0.4-0.4-0.6c-0.3,0.2-0.5,0.5-0.8,0.5l-0.2-0.1l0.2-0.4L738.4,0l-0.3,0c-0.3,0-0.7,0.2-0.9,0.3l-0.5-0.2l-1,0.1
		c-3.3,0.5-6.6,1.4-9.9,2.2l-0.3-0.2c-0.2,0.1-0.3,0.2-0.5,0.4c-1.1,0.2-2.3,0.5-3.4,0.7c0,0.1,0.4,0.1,1.1,0.1c-1,0.1-2,0.2-3,0.4
		l-0.5,0.1c-0.2-0.1-0.4-0.5-0.4-0.8l-4.8,0.6l-0.4,0.8c-1.1,0.2-2.4,0.5-3.6,0.4l-0.2,0.7l-1.5,0l-0.1-0.5c-0.7,0-1.2,0.2-1.9,0
		c-0.5,0.4-1.1,0.2-1.6,0.5c0.1,0.8,0.5,1.7,0.4,2.6l0.3,0.1c0,0.7,0.1,1.5,0.2,2.3l-0.4,0.3l0.5-0.1l0.1,0.4c0.1,0.7,0,1.5,0.5,2.2
		c0.1,0.4,0.1,0.8,0,1.1l-0.5,0.1l0.7,0.2l0,1l-0.5,0.4l0.2,0.1l0.5-0.2L707,17l-0.4,0.1l0.4,0.2l0,0.3c-0.3,0-0.6,0.1-0.8,0.3
		c0.1,0.8,0.5,1.7,0.4,2.6l0.3,0.1c0,0.7,0.1,1.5,0.2,2.3l-0.4,0.3l0.5-0.1l0.1,0.4c0.1,0.7,0,1.5,0.5,2.2c0.1,0.4,0.1,0.8,0,1.1
		l-0.5,0.1l0.7,0.2l0,1l-0.5,0.4l0.2,0.1l0.5-0.2l0.2,1.1l-0.4,0.1l0.4,0.2l0.1,0.7c-0.1,0.3-0.1,0.4,0,0.7c0,0.1,0,0.1,0,0.1
		c-7.2,1.1-16.8,2.3-16.8,2.3l-0.1,0.6l-0.8,0.4l-0.1,0.6c-0.8,0.1-1,0.6-1.6,0.9l0.7,0l0,0.1l-0.4,0.3l0,0.3l0.4-0.1l-0.2,1.7
		l0.5,0.3c0.6,1,0.4,2.3,0.5,3.5l-0.2,0.3c0,0.1,0.3,0.2,0.5,0.2c0.1,0.5,0.5,1.7,0.4,2.3l0.5,0.2l0,0.3l-1,0.3l0,0.1
		c0.4-0.1,1.1-0.2,1.3-0.1l0,0.3l-0.8,0.4l0.4,0.1l0.6-0.2l0.1,0.5c-0.8,0.4,0.5,1.7,0.1,2.2c0.3,0.6,0.7,1.4,0.3,2.2l0.5,0.2l1,0.4
		l2.1-0.3l-1.1,0.4c-0.8,0.3-0.5,0.9-0.8,1.4c-1.9,0.3-2.3,1.8-2,3.9l1.1,0.2l-0.1,0.6l-0.8,0.5c0,0.1,0.3,0.4,0.5,0.5l-0.4,0.3
		c0.1,0,0.3,0.7,0.5,1.5c-1.6,0.2-3.2,0.5-4.8,0.7l-0.3-0.4l-0.4-0.1l0-0.3c-0.3,0-0.6-0.3-0.8-0.6c0.1-0.3,0.4-0.9,0.4-1l0-0.3
		c0-0.1-0.2-0.3-0.2-0.4c0-0.1,0.1-0.4,0.2-0.4l0-0.3l-0.4,0.1c0-0.3-0.1-0.7-0.3-0.9l0.1,0c0.1,0,0.7-0.1,0.7-0.2l0-0.1
		c0-0.2-0.2-0.6-0.3-1.1c0.4-0.1,0.8-0.1,1.1-0.3c-0.1-0.8-0.5-1.7-0.4-2.6l-0.3-0.1c0-0.7-0.1-1.5-0.2-2.3l0.4-0.3l-0.5,0.1
		l-0.1-0.4c-0.1-0.7,0-1.5-0.5-2.2c-0.1-0.4-0.1-0.8,0-1.1l0.5-0.1l-0.7-0.2l0-1l0.5-0.4l-0.2-0.1l-0.5,0.2l-0.2-1.1l0.4-0.1
		l-0.4-0.2l-0.1-0.7c0.1-0.3,0.1-0.4,0-0.7c-0.1-0.4-0.1-0.7-0.3-1.1l-0.7,0l-0.3-0.4c-0.3-0.1-0.7-0.2-1-0.1l-0.1-0.7l0.2-0.5
		l-0.4-0.1l-0.2-1.1c0.1-0.2,0.1-0.4,0-0.7c0-0.3-0.4-0.5-0.1-0.7l-0.2-0.2l0.2-0.3l-0.3-0.2c-0.1-0.6-0.3-1.6-0.6-2.3
		c-2.7,0.4-5.7,0.9-8.4,1.2c-1.1,0.2-2.2,0.1-3.3,0.2c-0.7,0.1-1.5,0.5-2.1,0.6c-2.6,0.4-4.4,0.7-6,0.9l-0.1,0l0-0.3l1-0.3l0-0.1
		c-0.4,0.1-1.1,0.2-1.3,0.1l0-0.3l0.8-0.4l-0.4-0.1l-0.6,0.2l-0.1-0.5c0.8-0.4-0.5-1.7-0.1-2.2c-0.3-0.6-0.7-1.4-0.3-2.2l-0.5-0.2
		l0.3-0.6l-2.1,0.3l-0.3-0.2c0.8-0.3,1.8-1.1,2.1-1.6c1.9-0.3,1-1.5,0.7-3.7l-1.1-0.2l0.1-0.6l0.8-0.5c0-0.1-0.3-0.4-0.5-0.5
		l0.4-0.3c-0.2-0.1-1-3.5-0.8-3.9c-0.5-0.6-0.9-1.7-0.6-2.4l0.6-0.4l-0.7-0.2l-0.4-1.2c-3.2,0.5-11.9,2.4-13.7,2.3l-2.7,0.6
		l-3.2,0.5l-2.1,0.2c-0.8,0.1-2.9,0.7-3.4,0.5c-0.2,0.3-4.9,0.8-5.5,0.9c0,0.1-2.8,0.2-2.8,0.2l-1,0.6c-0.4,0.1-1.3,0.2-1.7,0.1
		l-0.6,0.4c-0.1,0.7,0.3,0.8,0.7,1.4l-0.1,0.6c0.7,0,1,1.9,0.8,2.4c1,0.5,0.4,5.4,1.1,5.7c0,0.1,0.3,1.9,0.5,2l-0.4,0.2
		c1,1,0.7,1.7,0.9,3.1l-0.2,0.2l0.1,0.5l-0.2,0.2l0.8,0.7c-0.3,0.6,0.4,1.3,0,1.5l-0.4,0.2l0.6,0.9l0.3,1.6l0.4,1.1l-1.2,0.3
		l-0.2,0.2l1.7,0l-0.1,0.4c-0.2,0.3,0.1,0.7,0.3,0.8l0.3,0.4l-1,0.7c1.5,0,1.7,0.9,1.5,1.4l-0.8,0.3l0.3,0.2c0.8-0.3,1.8,0.1,2.6,0
		c0.1,0.4,0.3,0.6,0.6,0.9l-0.4,0.3l-0.1,0.7l0.1,0.4l0.7,0.3l-0.2,0.2l-1.1-0.1l0,0.1l-0.4,0.2l0.3,0.2l1.3,0.1
		c0.3,0.5-0.4,1.7-0.5,2.3l0.4,0.1l0.4-0.3c0.2,0,0.4-0.2,0.7,0c2.8-0.3,6.6-1,9.3-1.4c2.4-0.4,5.6-0.8,8.8-1.3
		c0.2,0.8,0.5,1.6,0.4,2.4l0.3,0.1c0,0.7,0.1,1.5,0.2,2.3l-0.4,0.3l0.5-0.1l0.1,0.4c0.1,0.7,0,1.5,0.5,2.2c0.1,0.4,0.1,0.8,0,1.1
		l-0.5,0.1l0.7,0.2l0,1l-0.5,0.4l0.2,0.1l0.5-0.2l0.2,1.1l-0.4,0.1l0.4,0.2l0.1,0.7c-0.1,0.3-0.1,0.4,0,0.7c0.1,0.4,0.1,0.7,0.3,1.1
		l0.7,0l0.3,0.4c0.3,0.1,0.7,0.2,1,0.1l0.1,0.7l-0.2,0.5l0.4,0.1l0.1,0.9L606.7,74c-3.3,0.5-18.9,2.8-19.2,3l-0.1,0.4
		c0.3,0.8,0.2,1,0.3,1.9l-0.2,0.5l0.3,0.1l0.2,1.2l-0.1,0.4c0.5,0.3,0.3,2,0.5,1.6c0.2,0.5,0.2,1,0.1,1.5l0.2,0.1
		c-0.3,1.1,0.3,1.9,0.2,3.1c0.4,0.5,0.5,1.1,0.3,1.7l0.2,0.3l0,1c0,0.2,0.1,0.3,0.2,0.3l0.1,0.3l-0.2,0.4l0.3,0.1l-0.1,0.5l0.2,0.3
		c0,0.1,0,0.1,0,0.2l0,0c-0.3,0.2-1.1,0.5-1.5,0.2c-0.8,0.1-2,0.3-2.8,0.6l-0.4-0.1l-0.5,0.2l-0.2-0.3l-0.3,0.3l-0.3,0.1
		c0-0.1-0.2-0.1-0.4-0.1l-1,0.3l-0.4-0.1c-0.5,0.4-1.1,0.5-1.7,0.3c-1.1,0.5-2,0.2-3,0.8l-0.2-0.1c-0.5,0.2-1,0.4-1.5,0.4
		c0.3-0.3-1.3,0.3-1.7,0l-0.3,0.2l-1.2,0.2l-0.2-0.3l-0.5,0.4c-0.8,0.1-1,0.3-1.9,0.3l-0.3,0.2c-0.1,0.3,2.5,16.4,3.1,19.7l8,49.6
		c1,6.4,2.3,12.8,3,19.2c0.4,3.8,1.8,10.2,2.3,14c0.8,5.3,2.1,13.7,3.1,19c1.7,8.9,3.5,18.1,4.4,27.1l0.7,0.2l0.3-0.3
		c0,0,2.6-0.1,2.9-0.2c0.3-0.3,0.3-0.6,0.2-1c0.2,0.3,0.3,0.5,0.3,0.8c0.7,0.2,1.6,0,2.2-0.3c0.2,0.1,0.7,0.2,0.8-0.1
		c0.7,0,1.4-0.2,2-0.2l0.1-0.3c1.7-0.1,3.2-0.4,5.1-0.4c0.6-0.5,1.5-0.4,2.1-0.8l0,0.3l0.7-0.2c0.2,0.1,0.8,0.1,1.2,0
		c0,0.4,0.1,0.9-0.1,1.3c0.6,1.8,0.8,3.3,1.2,5l-0.2,0.2c0.2,0.7,0.2,1.4,0.4,2c-0.2,0.2,0,0.7,0.1,0.8c-0.2,0.7,0,1.6,0.3,2.2
		c0.3,0,0.5-0.1,0.8,0c-0.4,0.1-0.7,0.1-0.9,0.5c0.1,0.3,0.7,2.8,0.7,2.8l-0.2,0.4l0.4,0.6c8.6-1.9,17.6-2.9,26.4-3.9
		c5.2-0.6,31.2-4.7,36.4-5.5c3.7-0.6,35-5.1,38.6-5.8c6.1-1.3,51.8-8,58-9l38.2-5.6c3.3-0.5,18.9-2.8,19.2-3l0.1-0.4
		c-0.3-0.8-0.2-1-0.3-1.9l0.2-0.5l-0.3-0.1l-0.2-1.2l0.1-0.4c-0.5-0.3-0.3-2-0.5-1.6c-0.2-0.5-0.2-1-0.1-1.5l-0.2-0.1
		c0.3-1.1-0.3-1.9-0.2-3.1c-0.4-0.5-0.5-1.1-0.3-1.7l-0.2-0.3l0-1c0-0.2-0.1-0.3-0.2-0.3l-0.1-0.3l0.2-0.4l-0.3-0.1l0-0.1
		c1.2-0.3,2.3-0.5,3.5-0.8l0.2,0.3c0.7-0.2,1.4-0.2,2-0.5c0.2,0.3,0.7,0,0.8-0.1c0.7,0.2,1.6,0,2.2-0.3c0-0.3-0.1-0.6,0-0.9
		c0.1,0.4,0.1,0.7,0.5,0.9c0.3-0.1,2.8-0.7,2.8-0.7l0.4,0.2l0.6-0.4C840.8,199.5,839.7,190.3,838.6,181.3z M730.9,1.4l-0.5,0.6
		l-2.3,0.4c-0.3,0-0.5-0.1-0.6-0.2L730.9,1.4z M764.4,200.4c-2.7-0.1-5.5,1.4-8.2,1.3c-1.5-0.1-80.5,11.9-82.1,12.4
		c-3.6,1.1-28.6,4.6-32.4,5c-5.4,0.6-10.9,1.4-16.3,2.2c-0.8-4.9-1.7-9.7-2.6-14.6c-0.8-3.9-2.2-11.1-2.3-15
		c-0.1-1.7-2.6-16.7-3.2-18.2c-0.9-2.6-0.4-5.8-1.3-8.4c-1.2-3.4-7.1-45.8-7.6-49.3c-0.2-1.4-0.6-3.6-1-6.1c3.8-0.5,7.4-1.1,9.4-1.4
		c3.4-0.5,52.3-8.8,55.8-8.6c2.7,0.1,5.5-1.4,8.2-1.3c1.5,0.1,70.9-10.5,79.9-12c0.4,2.5,0.7,4.8,0.9,6.2c0.4,2.9,7.2,42.1,7,45
		c-0.2,2.3,1.2,4.6,1.1,6.9c-0.1,1.3,4.9,34.9,5.3,36.2c1,3,1.6,9.1,1.9,12.3c0.2,1.8,0.4,3.7,0.6,5.5
		C771.1,199.7,765.8,200.4,764.4,200.4z"/>
	<path d="M682.3,33.7C682.3,33.8,682.3,33.8,682.3,33.7c0.2,0,0.3,0,0.5,0C685,33.4,683.5,33.6,682.3,33.7z"/>
	<path d="M682.3,33.7C682.2,33.7,682.2,33.7,682.3,33.7C680.3,34,681.2,33.9,682.3,33.7z"/>
	<path d="M737,35.9C737.1,35.8,737.1,35.9,737,35.9C737.2,35.8,737.1,35.8,737,35.9z"/>
	<path d="M737,35.9c-1.1,0.2-2.2,0.1-3.2,0.2c-0.1,0-0.1,0-0.2,0c-1.2,0.2-2.7,0.4-4.9,0.8C728.1,37,736.1,36,737,35.9z"/>
	<path d="M665.8,146.8l0.2-0.5c-0.4-0.6-0.1-1-0.3-1.6l0-0.3l-0.4-0.1l-0.4-0.5l-0.4-0.1l0-0.3c-0.3,0-0.6-0.3-0.8-0.6
		c0.1-0.3,0.4-0.9,0.4-1l0-0.3c0-0.1-0.2-0.3-0.2-0.4c0-0.1,0.1-0.4,0.2-0.4l0-0.3l-0.4,0.1c0-0.3-0.1-0.7-0.3-0.9l0.1,0
		c0.1,0,0.7-0.1,0.7-0.2l0-0.1c0-0.2-0.2-0.6-0.3-1.1c0.4-0.1,0.8-0.1,1.1-0.3c-0.1-0.8-0.5-1.7-0.4-2.6l-0.3-0.1
		c0-0.7-0.1-1.5-0.2-2.3l0.4-0.3l-0.5,0.1l-0.1-0.4c-0.1-0.7,0-1.5-0.5-2.2c-0.1-0.4-0.1-0.8,0-1.1l0.5-0.1l-0.7-0.2l0-1l0.5-0.4
		l-0.2-0.1l-0.5,0.2l-0.2-1.1l0.4-0.1l-0.4-0.2l-0.1-0.7c0.1-0.3,0.1-0.4,0-0.7c-0.1-0.4-0.1-0.7-0.3-1.1l-0.7,0l-0.3-0.4
		c-0.3-0.1-0.7-0.2-1-0.1l-0.1-0.7l0.2-0.5l-0.4-0.1l-0.2-1.1c0.1-0.2,0.1-0.4,0-0.7c0-0.3-0.4-0.5-0.1-0.7l-0.2-0.2l0.2-0.3
		l-0.3-0.2c-0.1-0.6-0.3-1.6-0.6-2.3c-2.7,0.4-5.7,0.9-8.4,1.2c-1.1,0.2-2.2,0.1-3.3,0.2c-0.7,0.1-1.5,0.5-2.1,0.6
		c-10.1,1.6-9.5,1.5-19.5,3.4l0.2,1.4l0.3,0.4l-0.2,0.5c0.4,0.6,0.1,1,0.3,1.6l0,0.3l0.4,0.1l0.4,0.5l0.4,0.1l0,0.3
		c0.3,0,0.6,0.3,0.8,0.6c-0.1,0.3-0.4,0.9-0.4,1l0,0.3c0,0.1,0.2,0.3,0.2,0.4c0,0.1-0.1,0.4-0.2,0.4l0,0.3l0.4-0.1
		c0,0.3,0.1,0.7,0.3,0.9l-0.1,0c-0.1,0-0.7,0.1-0.7,0.2l0,0.1c0,0.2,0.2,0.6,0.3,1.1c-0.4,0.1-0.8,0.1-1.1,0.3
		c0.1,0.8,0.5,1.7,0.4,2.6l0.3,0.1c0,0.7,0.1,1.5,0.2,2.3l-0.4,0.3l0.5-0.1l0.1,0.4c0.1,0.7,0,1.5,0.5,2.2c0.1,0.4,0.1,0.8,0,1.1
		l-0.5,0.1l0.7,0.2l0,1l-0.5,0.4l0.2,0.1l0.5-0.2l0.2,1.1l-0.4,0.1l0.4,0.2l0.1,0.7c-0.1,0.3-0.1,0.4,0,0.7c0.1,0.4,0.1,0.7,0.3,1.1
		l0.7,0l0.3,0.4c0.3,0.1,0.7,0.2,1,0.1l0.1,0.7l-0.2,0.5l0.4,0.1l0.2,1.1c-0.1,0.2-0.1,0.4,0,0.7c0,0.3,0.4,0.5,0.1,0.7l0.2,0.2
		l-0.2,0.3l0.3,0.2c0.1,0.7,0.3,1.8,0.6,2.4c4.2-0.7,8.4-1.4,12.6-2.1c2.9-0.4-4.5,0.7-1.7,0.4c1.1-0.2,2.2-0.1,3.3-0.2
		c0.7-0.1,1.5-0.5,2.1-0.6c10.1-1.6,6.8-1.1,16.8-3l-0.2-1.4L665.8,146.8z"/>
	<path d="M658.7,116.3C658.7,116.2,658.7,116.2,658.7,116.3C656.7,116.5,657.6,116.4,658.7,116.3z"/>
	<path d="M658.7,116.3C658.7,116.3,658.8,116.3,658.7,116.3c0.2,0,0.3,0,0.5,0C661.5,115.9,660,116.1,658.7,116.3z"/>
	<path d="M716.5,140.6c-0.7,0-1-1.9-0.8-2.4c-1-0.5-0.4-5.4-1.1-5.7c0-0.1-0.3-1.9-0.5-2l0.4-0.2c-1-1-0.7-1.7-0.9-3.1l0.2-0.2
		l-0.1-0.5l0.2-0.2l-0.8-0.7c0.3-0.6-0.4-1.3,0-1.5l0.4-0.2l-0.6-0.9l-0.3-1.6l-0.4-1.1l1.2-0.3l0.2-0.2l-1.7,0l0.1-0.4
		c0.2-0.3-0.1-0.7-0.3-0.8l-0.3-0.4l1-0.7c-1.5,0-1.7-0.9-1.5-1.4l0.8-0.3l-0.3-0.2c-0.8,0.3-1.8-0.1-2.6,0
		c-0.1-0.4-0.3-0.6-0.6-0.9l0.4-0.3l0.1-0.7l-0.1-0.4l-0.7-0.3l0.2-0.2l1.1,0.1l0-0.1l0.4-0.2l-0.3-0.2l-1.3-0.1
		c-0.3-0.5,0.4-1.7,0.5-2.3l-0.4-0.1l-0.4,0.3c-0.2,0-0.4,0.2-0.7,0c-2.8,0.3-6.6,1-9.3,1.4c-7,1.1-20.8,2.9-20.8,2.9l-0.1,0.6
		l-0.8,0.4l-0.1,0.6c-0.8,0.1-1,0.6-1.6,0.9l0.7,0l0,0.1l-0.4,0.3l0,0.3l0.4-0.1l-0.2,1.7l0.5,0.3c0.6,1,0.4,2.3,0.5,3.5l-0.2,0.3
		c0,0.1,0.3,0.2,0.5,0.2c0.1,0.5,0.5,1.7,0.4,2.3l0.5,0.2l0,0.3l-1,0.3l0,0.1c0.4-0.1,1.1-0.2,1.3-0.1l0,0.3l-0.8,0.4l0.4,0.1
		l0.6-0.2l0.1,0.5c-0.8,0.4,0.5,1.7,0.1,2.2c0.3,0.6,0.7,1.4,0.3,2.2l0.5,0.2l1,0.4l2.1-0.3l-1.1,0.4c-0.8,0.3-0.5,0.9-0.8,1.4
		c-1.9,0.3-2.3,1.8-2,3.9l1.1,0.2l-0.1,0.6l-0.8,0.5c0,0.1,0.3,0.4,0.5,0.5l-0.4,0.3c0.2,0.1,1,3.5,0.8,3.9c0.5,0.6,0.9,1.7,0.6,2.4
		l-0.6,0.4l0.7,0.2l0.4,1.2c3.2-0.5,11.9-2.4,13.7-2.3l2.7-0.6l3.2-0.5l2.1-0.2c0.8-0.1,2.9-0.7,3.4-0.5c0.2-0.3,4.9-0.8,5.5-0.9
		c0-0.1,2.8-0.2,2.8-0.2l1-0.6c0.4-0.1,1.3-0.2,1.7-0.1l0.6-0.4c0.1-0.7-0.3-0.8-0.7-1.4L716.5,140.6z"/>
</g>
</svg>
